<svg width="332" height="250" viewBox="0 0 332 250" fill="none" xmlns="http://www.w3.org/2000/svg">
<g clip-path="url(#clip0_4613_3733)">
<path d="M153.104 53.333H71.2042C70.8021 53.3326 70.4166 53.173 70.1322 52.8895C69.8479 52.6059 69.688 52.2214 69.6875 51.8204V31.5584C69.688 31.1573 69.8479 30.7729 70.1322 30.4893C70.4166 30.2057 70.8021 30.0462 71.2042 30.0457H153.104C153.507 30.0462 153.892 30.2057 154.176 30.4893C154.461 30.7729 154.621 31.1573 154.621 31.5584V51.8204C154.621 52.2214 154.461 52.6059 154.176 52.8895C153.892 53.173 153.507 53.3326 153.104 53.333ZM71.2042 30.6508C70.9629 30.651 70.7316 30.7467 70.561 30.9169C70.3904 31.087 70.2944 31.3177 70.2942 31.5584V51.8204C70.2944 52.061 70.3904 52.2917 70.561 52.4619C70.7316 52.632 70.9629 52.7277 71.2042 52.728H153.104C153.346 52.7277 153.577 52.632 153.748 52.4619C153.918 52.2917 154.014 52.061 154.014 51.8204V31.5584C154.014 31.3177 153.918 31.087 153.748 30.9169C153.577 30.7467 153.346 30.651 153.104 30.6508L71.2042 30.6508Z" fill="#FFBE72"/>
<path d="M83.9281 47.0736C87.3402 47.0736 90.1062 44.3149 90.1062 40.9119C90.1062 37.5089 87.3402 34.7502 83.9281 34.7502C80.516 34.7502 77.75 37.5089 77.75 40.9119C77.75 44.3149 80.516 47.0736 83.9281 47.0736Z" fill="#0084FF"/>
<path d="M98.1976 36.8041C97.9246 36.8041 97.6627 36.9123 97.4696 37.1049C97.2765 37.2975 97.168 37.5587 97.168 37.8311C97.168 38.1034 97.2765 38.3646 97.4696 38.5572C97.6627 38.7498 97.9246 38.858 98.1976 38.858H146.74C147.013 38.858 147.275 38.7498 147.468 38.5572C147.661 38.3646 147.77 38.1034 147.77 37.8311C147.77 37.5587 147.661 37.2975 147.468 37.1049C147.275 36.9123 147.013 36.8041 146.74 36.8041H98.1976Z" fill="#E6E6E6"/>
<path d="M98.1976 42.9658C97.9246 42.9658 97.6627 43.074 97.4696 43.2666C97.2765 43.4592 97.168 43.7204 97.168 43.9928C97.168 44.2651 97.2765 44.5264 97.4696 44.7189C97.6627 44.9115 97.9246 45.0197 98.1976 45.0197H119.086C119.221 45.02 119.355 44.9936 119.48 44.9421C119.605 44.8906 119.719 44.815 119.815 44.7196C119.911 44.6242 119.987 44.5109 120.039 44.3862C120.09 44.2615 120.117 44.1278 120.117 43.9928C120.117 43.8578 120.09 43.7241 120.039 43.5993C119.987 43.4746 119.911 43.3613 119.815 43.266C119.719 43.1706 119.605 43.095 119.48 43.0435C119.355 42.992 119.221 42.9656 119.086 42.9658H98.1976Z" fill="#E6E6E6"/>
<path d="M117.546 125.558H81.1456C80.7435 125.557 80.358 125.398 80.0736 125.114C79.7893 124.831 79.6294 124.446 79.6289 124.045V86.2366C79.6294 85.8355 79.7893 85.4511 80.0736 85.1675C80.358 84.8839 80.7435 84.7244 81.1456 84.7239H117.546C117.948 84.7244 118.333 84.8839 118.618 85.1675C118.902 85.4511 119.062 85.8355 119.062 86.2366V124.045C119.062 124.446 118.902 124.831 118.618 125.114C118.333 125.398 117.948 125.557 117.546 125.558ZM81.1456 85.329C80.9043 85.3292 80.673 85.4249 80.5024 85.5951C80.3318 85.7652 80.2358 85.9959 80.2356 86.2366V124.045C80.2358 124.286 80.3318 124.517 80.5024 124.687C80.673 124.857 80.9043 124.953 81.1456 124.953H117.546C117.787 124.953 118.018 124.857 118.189 124.687C118.36 124.517 118.456 124.286 118.456 124.045V86.2366C118.456 85.9959 118.36 85.7652 118.189 85.5951C118.018 85.4249 117.787 85.3292 117.546 85.329H81.1456Z" fill="#FFBE72"/>
<path d="M88.9008 92.5208C88.6277 92.5208 88.3658 92.629 88.1727 92.8215C87.9796 93.0141 87.8711 93.2754 87.8711 93.5477C87.8711 93.8201 87.9796 94.0813 88.1727 94.2739C88.3658 94.4665 88.6277 94.5747 88.9008 94.5747H109.789C110.062 94.5747 110.324 94.4665 110.517 94.2739C110.71 94.0813 110.818 93.8201 110.818 93.5477C110.818 93.2754 110.71 93.0141 110.517 92.8215C110.324 92.629 110.062 92.5208 109.789 92.5208H88.9008Z" fill="#E6E6E6"/>
<path d="M88.9027 98.5713C88.7673 98.5711 88.6332 98.5975 88.508 98.649C88.3829 98.7005 88.2692 98.7761 88.1734 98.8715C88.0775 98.9668 88.0015 99.0801 87.9497 99.2049C87.8978 99.3296 87.8711 99.4633 87.8711 99.5983C87.8711 99.7333 87.8978 99.867 87.9497 99.9917C88.0015 100.116 88.0775 100.23 88.1734 100.325C88.2692 100.42 88.3829 100.496 88.508 100.548C88.6332 100.599 88.7673 100.625 88.9027 100.625H109.791C110.064 100.625 110.326 100.517 110.519 100.324C110.712 100.132 110.82 99.8706 110.82 99.5983C110.82 99.3259 110.712 99.0647 110.519 98.8721C110.326 98.6795 110.064 98.5713 109.791 98.5713H88.9027Z" fill="#E6E6E6"/>
<path d="M99.3486 117.761C98.0667 117.761 96.8136 117.382 95.7477 116.672C94.6819 115.961 93.8511 114.952 93.3606 113.771C92.87 112.589 92.7416 111.29 92.9917 110.036C93.2418 108.782 93.8591 107.63 94.7656 106.726C95.672 105.822 96.8269 105.206 98.0841 104.957C99.3414 104.707 100.645 104.835 101.829 105.325C103.013 105.814 104.025 106.643 104.738 107.706C105.45 108.769 105.83 110.018 105.83 111.297C105.828 113.011 105.145 114.654 103.929 115.866C102.714 117.077 101.067 117.759 99.3486 117.761Z" fill="#0084FF"/>
<path d="M177.177 0H213.577C213.979 0.000470903 214.365 0.159989 214.649 0.443563C214.933 0.727136 215.093 1.11161 215.094 1.51264V39.3213C215.093 39.7224 214.933 40.1068 214.649 40.3904C214.365 40.674 213.979 40.8335 213.577 40.834H177.177C176.775 40.8335 176.389 40.674 176.105 40.3904C175.821 40.1068 175.661 39.7224 175.66 39.3213V1.51264C175.661 1.11161 175.821 0.727136 176.105 0.443563C176.389 0.159989 176.775 0.000470903 177.177 0ZM213.577 40.2289C213.818 40.2287 214.05 40.133 214.22 39.9628C214.391 39.7927 214.487 39.562 214.487 39.3213V1.51264C214.487 1.27202 214.391 1.04132 214.22 0.871173C214.05 0.701024 213.818 0.60532 213.577 0.605057H177.177C176.936 0.60532 176.704 0.701024 176.534 0.871173C176.363 1.04132 176.267 1.27202 176.267 1.51264V39.3213C176.267 39.562 176.363 39.7927 176.534 39.9628C176.704 40.133 176.936 40.2287 177.177 40.2289H213.577Z" fill="#FFBE72"/>
<path d="M205.82 33.0371C206.093 33.0371 206.355 32.9289 206.548 32.7364C206.741 32.5438 206.85 32.2826 206.85 32.0102C206.85 31.7378 206.741 31.4766 206.548 31.284C206.355 31.0914 206.093 30.9832 205.82 30.9832H184.932C184.659 30.9832 184.397 31.0914 184.204 31.284C184.011 31.4766 183.902 31.7378 183.902 32.0102C183.902 32.2826 184.011 32.5438 184.204 32.7364C184.397 32.9289 184.659 33.0371 184.932 33.0371H205.82Z" fill="#E6E6E6"/>
<path d="M205.82 26.9866C206.093 26.9866 206.355 26.8784 206.548 26.6858C206.741 26.4932 206.85 26.232 206.85 25.9596C206.85 25.6873 206.741 25.426 206.548 25.2335C206.355 25.0409 206.093 24.9327 205.82 24.9327H184.932C184.659 24.9327 184.397 25.0409 184.204 25.2335C184.011 25.426 183.902 25.6873 183.902 25.9596C183.902 26.232 184.011 26.4932 184.204 26.6858C184.397 26.8784 184.659 26.9866 184.932 26.9866H205.82Z" fill="#E6E6E6"/>
<path d="M195.376 7.79684C196.658 7.79684 197.911 8.17596 198.977 8.88625C200.043 9.59654 200.873 10.6061 201.364 11.7873C201.855 12.9685 201.983 14.2682 201.733 15.5221C201.483 16.7761 200.865 17.9279 199.959 18.8319C199.053 19.7359 197.898 20.3516 196.64 20.601C195.383 20.8504 194.08 20.7224 192.896 20.2332C191.711 19.7439 190.699 18.9154 189.987 17.8523C189.275 16.7893 188.895 15.5395 188.895 14.261C188.896 12.5472 189.58 10.9041 190.795 9.69229C192.01 8.48044 193.658 7.79878 195.376 7.79684Z" fill="#FF84BF"/>
<path d="M70.1536 78.2204C76.5948 73.2448 84.1203 69.8519 92.1208 68.3163C100.185 66.7837 108.5 67.2098 116.364 69.5587C120.318 70.7327 124.116 72.374 127.678 74.4479C131.308 76.564 134.587 79.1691 137.743 81.9273C140.939 84.7214 144.031 87.6399 147.368 90.2704C156.895 97.8655 168.723 102.015 180.919 102.042C181.927 102.043 182.934 102.016 183.94 101.959C184.485 101.929 184.489 101.078 183.94 101.109C171.507 101.791 159.23 98.0914 149.257 90.6561C145.799 88.0767 142.641 85.1274 139.417 82.2695C136.291 79.4987 133.081 76.8033 129.535 74.5772C120.861 69.1271 110.77 66.345 100.521 66.578C90.2715 66.811 80.3179 70.0488 71.9018 75.8874C71.1016 76.4423 70.32 77.0223 69.5509 77.6193C69.1185 77.9549 69.7256 78.5526 70.1536 78.2204Z" fill="#FFBE72"/>
<path d="M69.7029 82.3293C72.1492 82.3293 74.1324 80.3514 74.1324 77.9116C74.1324 75.4717 72.1492 73.4939 69.7029 73.4939C67.2566 73.4939 65.2734 75.4717 65.2734 77.9116C65.2734 80.3514 67.2566 82.3293 69.7029 82.3293Z" fill="#FFBE72"/>
<path d="M234.484 140.984C236.93 140.984 238.914 139.006 238.914 136.567C238.914 134.127 236.93 132.149 234.484 132.149C232.038 132.149 230.055 134.127 230.055 136.567C230.055 139.006 232.038 140.984 234.484 140.984Z" fill="#FFBE72"/>
<path d="M257.69 111.401H185.415C185.013 111.401 184.628 111.241 184.343 110.958C184.059 110.674 183.899 110.29 183.898 109.889V72.3824C183.899 71.9814 184.059 71.5969 184.343 71.3134C184.628 71.0298 185.013 70.8703 185.415 70.8698H257.69C258.093 70.8703 258.478 71.0298 258.762 71.3133C259.047 71.5969 259.207 71.9814 259.207 72.3824V109.889C259.207 110.29 259.047 110.674 258.762 110.958C258.478 111.241 258.093 111.401 257.69 111.401ZM185.415 71.4749C185.174 71.4751 184.943 71.5708 184.772 71.741C184.601 71.9111 184.505 72.1418 184.505 72.3824V109.889C184.505 110.129 184.601 110.36 184.772 110.53C184.943 110.7 185.174 110.796 185.415 110.796H257.69C257.932 110.796 258.163 110.7 258.334 110.53C258.504 110.36 258.6 110.129 258.6 109.889V72.3824C258.6 72.1418 258.504 71.9111 258.334 71.741C258.163 71.5708 257.932 71.4751 257.69 71.4749H185.415Z" fill="#FFBE72"/>
<path d="M197.534 90.3179C200.946 90.3179 203.712 87.5592 203.712 84.1562C203.712 80.7532 200.946 77.9945 197.534 77.9945C194.121 77.9945 191.355 80.7532 191.355 84.1562C191.355 87.5592 194.121 90.3179 197.534 90.3179Z" fill="#0084FF"/>
<path d="M211.801 80.0484C211.666 80.0482 211.532 80.0746 211.406 80.126C211.281 80.1775 211.168 80.2532 211.072 80.3485C210.976 80.4439 210.9 80.5572 210.848 80.6819C210.796 80.8067 210.77 80.9403 210.77 81.0754C210.77 81.2104 210.796 81.3441 210.848 81.4688C210.9 81.5935 210.976 81.7068 211.072 81.8022C211.168 81.8976 211.281 81.9732 211.406 82.0247C211.532 82.0762 211.666 82.1026 211.801 82.1023H250.718C250.992 82.1023 251.253 81.9941 251.447 81.8015C251.64 81.6089 251.748 81.3477 251.748 81.0754C251.748 80.803 251.64 80.5418 251.447 80.3492C251.253 80.1566 250.992 80.0484 250.718 80.0484H211.801Z" fill="#E6E6E6"/>
<path d="M211.801 86.2101C211.666 86.2099 211.532 86.2363 211.406 86.2878C211.281 86.3393 211.168 86.4149 211.072 86.5103C210.976 86.6056 210.9 86.7189 210.848 86.8436C210.796 86.9684 210.77 87.1021 210.77 87.2371C210.77 87.3721 210.796 87.5058 210.848 87.6305C210.9 87.7552 210.976 87.8685 211.072 87.9639C211.168 88.0593 211.281 88.1349 211.406 88.1864C211.532 88.2379 211.666 88.2643 211.801 88.264H232.689C232.962 88.264 233.224 88.1558 233.417 87.9632C233.61 87.7707 233.719 87.5094 233.719 87.2371C233.719 86.9647 233.61 86.7035 233.417 86.5109C233.224 86.3183 232.962 86.2101 232.689 86.2101H211.801Z" fill="#E6E6E6"/>
<path d="M192.796 96.0609C192.012 96.0609 191.375 96.5217 191.375 97.0879C191.375 97.6541 192.012 98.1148 192.796 98.1148H250.144C250.927 98.1148 251.565 97.6541 251.565 97.0879C251.565 96.5217 250.927 96.0609 250.144 96.0609H192.796Z" fill="#E6E6E6"/>
<path d="M192.796 102.223C192.012 102.223 191.375 102.683 191.375 103.25C191.375 103.816 192.012 104.277 192.796 104.277H250.144C250.927 104.277 251.565 103.816 251.565 103.25C251.565 102.683 250.927 102.223 250.144 102.223H192.796Z" fill="#E6E6E6"/>
<path d="M179.606 140.679C183.684 138.915 188.236 140.453 192.08 142.079C194.059 142.917 196.017 143.81 198.065 144.472C199.789 145.026 201.554 145.444 203.343 145.719C206.934 146.268 210.587 146.29 214.185 145.785C217.801 145.282 221.325 144.26 224.647 142.751C227.952 141.257 231.006 139.266 233.703 136.846C234.046 136.537 234.382 136.221 234.712 135.898C235.104 135.514 234.502 134.913 234.109 135.297C231.512 137.822 228.531 139.921 225.276 141.516C222.034 143.106 218.576 144.214 215.013 144.804C211.437 145.406 207.792 145.468 204.198 144.991C202.405 144.749 200.634 144.365 198.902 143.843C196.913 143.197 194.962 142.442 193.058 141.579C189.179 139.917 184.869 138.29 180.606 139.436C180.118 139.571 179.64 139.741 179.176 139.945C178.674 140.162 179.108 140.895 179.606 140.679Z" fill="#FFBE72"/>
<path d="M178.029 151.105H143.883L151.919 137.224C152.063 136.975 152.27 136.768 152.519 136.625C152.769 136.481 153.052 136.405 153.34 136.405C153.628 136.405 153.911 136.481 154.16 136.625C154.41 136.768 154.617 136.975 154.761 137.224L158.194 143.154L164.031 133.071C164.211 132.759 164.47 132.5 164.783 132.321C165.095 132.141 165.449 132.046 165.81 132.046C166.171 132.046 166.525 132.141 166.837 132.321C167.15 132.5 167.409 132.759 167.589 133.071L178.029 151.105Z" fill="#EDA12F"/>
<path d="M178.061 151.102H141.661C141.259 151.101 140.874 150.942 140.589 150.658C140.305 150.375 140.145 149.99 140.145 149.589V129.327C140.145 128.926 140.305 128.542 140.589 128.258C140.874 127.974 141.259 127.815 141.661 127.814H178.061C178.463 127.815 178.849 127.974 179.133 128.258C179.418 128.542 179.578 128.926 179.578 129.327V149.589C179.578 149.99 179.418 150.375 179.133 150.658C178.849 150.942 178.463 151.101 178.061 151.102ZM141.661 128.419C141.42 128.42 141.189 128.515 141.018 128.686C140.847 128.856 140.751 129.086 140.751 129.327V149.589C140.751 149.83 140.847 150.06 141.018 150.231C141.189 150.401 141.42 150.496 141.661 150.497H178.061C178.303 150.496 178.534 150.401 178.705 150.231C178.875 150.06 178.971 149.83 178.971 149.589V129.327C178.971 129.086 178.875 128.856 178.705 128.686C178.534 128.515 178.303 128.42 178.061 128.419H141.661Z" fill="#FFBE72"/>
<path d="M249.459 133.269L242.97 136.555C240.655 137.728 238.42 137.527 237.564 135.082C237.36 134.5 237.285 133.881 237.343 133.267C237.402 132.653 237.593 132.06 237.902 131.526C238.212 130.993 238.634 130.533 239.139 130.177C239.644 129.821 240.22 129.579 240.827 129.465L246.994 128.317L273.404 119.578L289.402 108.265L295.266 117.583L276.781 127.531L249.459 133.269Z" fill="#FFB8B8"/>
<path d="M279.746 242.34L274.781 241.515L275.333 232.163H280.573L279.746 242.34Z" fill="#FFB8B8"/>
<path d="M327.924 233.206L323.12 234.701L319.387 226.105L324.064 223.75L327.924 233.206Z" fill="#FFB8B8"/>
<path d="M325.249 225.012L319.182 227.487L290.224 189.53L281.123 234.089L275.056 232.989C271.164 194.573 267.99 155.39 271.885 136.858L294.361 135.895L304.565 168.351L309.529 190.355L325.249 225.012Z" fill="#2F2E41"/>
<path d="M279.471 249.904C278.563 250.098 277.617 249.997 276.771 249.617L273.822 248.294C271.349 248.167 269.666 248.658 268.289 246.867C267.901 246.354 267.657 245.748 267.583 245.11C267.508 244.472 267.607 243.826 267.868 243.239C268.126 242.65 268.537 242.14 269.059 241.761C269.58 241.383 270.193 241.15 270.835 241.086L274.885 238.54L275.098 240.449C276.949 241.495 279.147 241.043 281.475 240.025L282.747 244.462C282.911 245.034 282.955 245.634 282.877 246.224C282.799 246.814 282.6 247.382 282.293 247.892C281.986 248.402 281.577 248.844 281.091 249.19C280.606 249.536 280.054 249.779 279.471 249.904Z" fill="#2F2E41"/>
<path d="M329.888 240.801C329.093 241.278 328.166 241.49 327.241 241.405L324.021 241.108C321.641 241.789 320.209 242.799 318.323 241.55C317.789 241.191 317.361 240.697 317.083 240.117C316.806 239.538 316.688 238.895 316.744 238.255C316.796 237.614 317.019 236.999 317.389 236.472C317.759 235.945 318.263 235.526 318.849 235.258L321.851 231.539L322.673 233.275C324.765 233.664 326.697 232.525 328.568 230.808L331.215 234.593C331.556 235.082 331.793 235.634 331.912 236.218C332.03 236.801 332.027 237.402 331.902 237.984C331.778 238.566 331.535 239.117 331.189 239.601C330.842 240.086 330.4 240.494 329.888 240.801Z" fill="#2F2E41"/>
<path d="M286.088 96.8376C291.572 96.8376 296.017 92.4044 296.017 86.9357C296.017 81.4671 291.572 77.0338 286.088 77.0338C280.605 77.0338 276.16 81.4671 276.16 86.9357C276.16 92.4044 280.605 96.8376 286.088 96.8376Z" fill="#FFB8B8"/>
<path d="M298.222 107.84L285.26 105.089L283.605 94.3623L292.706 92.4369L298.222 107.84Z" fill="#FFB8B8"/>
<path d="M294.639 137.27H271.473L276.694 124.195C276.315 119.696 278.227 116.387 280.963 113.507L284.435 104.814C290.044 101.132 294.272 101.407 298.775 106.189C304.114 113.729 300.419 125.062 294.639 137.27Z" fill="#0084FF"/>
<path d="M284.158 165.051L283.499 172.278C283.264 174.858 281.905 176.639 279.373 176.062C278.771 175.925 278.205 175.659 277.715 175.284C277.225 174.908 276.822 174.431 276.534 173.886C276.246 173.341 276.079 172.74 276.045 172.124C276.012 171.509 276.112 170.893 276.339 170.32L278.642 164.5L285.261 137.545L284.158 118.017H295.189L293.81 138.921L284.158 165.051Z" fill="#FFB8B8"/>
<path d="M296.014 118.567H283.328L284.217 110.313C284.276 108.886 284.867 107.531 285.876 106.517C286.884 105.502 288.236 104.899 289.667 104.828C290.425 104.79 291.183 104.903 291.897 105.159C292.612 105.416 293.268 105.811 293.828 106.322C294.388 106.833 294.841 107.449 295.161 108.136C295.48 108.823 295.66 109.566 295.69 110.322L296.014 118.567Z" fill="#0084FF"/>
<path d="M298.376 76.7544C300.437 76.7544 302.108 75.088 302.108 73.0325C302.108 70.977 300.437 69.3107 298.376 69.3107C296.315 69.3107 294.645 70.977 294.645 73.0325C294.645 75.088 296.315 76.7544 298.376 76.7544Z" fill="#2F2E41"/>
<path d="M294.53 72.1213C294.591 71.1771 295.011 70.2916 295.704 69.6453C296.397 68.999 297.311 68.6405 298.26 68.6427C298.183 68.633 298.106 68.6211 298.028 68.6161C297.04 68.5534 296.068 68.8842 295.326 69.536C294.583 70.1877 294.13 71.1069 294.066 72.0916C294.003 73.0763 294.334 74.0458 294.987 74.7871C295.64 75.5283 296.561 75.9806 297.549 76.0445C297.627 76.0495 297.705 76.0475 297.782 76.0477C296.841 75.9288 295.981 75.4565 295.376 74.727C294.772 73.9975 294.469 73.0657 294.53 72.1213Z" fill="#2F2E41"/>
<path d="M294.508 73.7107C291.179 70.9571 281.633 74.4568 281.017 76.308C276.517 76.9197 273.109 79.5386 273.109 84.1951C275.785 85.2883 278.828 85.1536 282.118 84.1951C287.362 88.4572 287.721 93.8152 284.532 99.9692L288.456 100.047L293.319 92.9585L293.551 100.149L302.545 99.9692V89.6646C302.574 86.2384 301.783 82.8547 300.238 79.7944C298.837 77.0788 296.662 75.4932 294.508 73.7107Z" fill="#2F2E41"/>
<path d="M286.132 91.9166C287.118 91.9166 287.917 90.8011 287.917 89.4249C287.917 88.0488 287.118 86.9332 286.132 86.9332C285.147 86.9332 284.348 88.0488 284.348 89.4249C284.348 90.8011 285.147 91.9166 286.132 91.9166Z" fill="#FFB8B8"/>
<path d="M61.5977 92.5868C61.5977 92.5868 62.6719 74.0428 68.2486 78.2565C73.8254 82.4702 65.8132 94.3066 65.8132 94.3066L61.5977 92.5868Z" fill="#FFB9B9"/>
<path d="M40.8486 147.593C40.8486 147.593 53.2365 161.463 46.3056 162.416C39.3748 163.37 36.6484 149.35 36.6484 149.35L40.8486 147.593Z" fill="#FFB9B9"/>
<path d="M24.6839 81.9383C26.2387 82.3463 27.6379 83.2035 28.7059 84.4021C29.7739 85.6006 30.463 87.0872 30.6867 88.6751L34.6272 116.647L40.1512 138.96C40.1512 138.96 42.9132 141.44 41.8084 142.817C40.7036 144.194 43.1894 149.979 43.1894 149.979L36.2844 152.183C36.2844 152.183 35.4558 146.398 34.0748 146.123C32.8611 145.881 19.2749 109.683 16 100.914C15.5485 99.705 15.293 99.0174 15.293 99.0174C15.293 99.0174 15.8454 80.5609 24.6839 81.9383Z" fill="#575A89"/>
<path d="M25.9458 227.811L30.1871 235.307C33.4715 242.301 30.5528 243.571 22.4997 240.105L20.6641 231.253L25.9458 227.811Z" fill="#FFB9B9"/>
<path d="M28.0841 237.774C28.0841 237.774 30.0975 234.505 30.8257 235.052C31.554 235.599 34.5576 237.97 34.5576 237.97L38.47 241.708C38.47 241.708 51.6882 243.101 43.2891 247.72C34.8899 252.34 30.2483 248.51 30.2483 248.51C30.2483 248.51 18.4844 249.12 18.6741 245.846C18.8639 242.573 22.6578 237.394 22.6578 237.394C22.6578 237.394 27.4395 240.592 28.0841 237.774Z" fill="#2F2E41"/>
<path d="M7.125 143.078L11.1012 191.063C11.1012 191.063 11.2338 219.748 15.475 225.299C19.7163 230.851 19.8488 233.627 19.8488 233.627L28.5965 229.133C28.5965 229.133 24.0901 221.644 25.0179 220.497C25.5898 219.77 25.9968 218.928 26.2108 218.029L23.825 188.419L28.3314 136.865L7.125 143.078Z" fill="#2F2E41"/>
<path d="M17.9946 227.811L14.2835 237.593L5.86719 234.084L10.3074 226.753L17.9946 227.811Z" fill="#FFB9B9"/>
<path d="M11.802 234.298C11.802 234.298 14.9586 232.331 15.3531 233.118C15.7477 233.905 17.326 237.25 17.326 237.25L19.1015 242.169C19.1015 242.169 29.9522 249.055 20.6798 249.449C11.4074 249.842 9.04003 244.53 9.04003 244.53C9.04003 244.53 -1.41604 240.004 0.16225 237.25C1.74054 234.495 7.26449 231.638 7.26449 231.638C7.26449 231.638 10.0265 236.463 11.802 234.298Z" fill="#2F2E41"/>
<path d="M40.7902 143.211L42.9108 187.361C42.9108 187.361 23.56 227.282 21.4393 228.34C20.8074 228.665 20.2473 229.114 19.792 229.658C19.3367 230.203 18.9955 230.834 18.7885 231.512L7.125 228.604L12.4266 220.144L24.0901 191.856C24.0901 191.856 25.9457 191.063 26.4759 188.419C27.006 185.775 28.0663 185.775 25.4155 185.246C22.7647 184.718 22.7647 182.074 22.7647 182.074L14.0171 141.889L40.7902 143.211Z" fill="#2F2E41"/>
<path d="M41.7131 65.0627C42.6511 59.2977 38.7256 53.8658 32.9452 52.9303C27.1648 51.9948 21.7185 55.9098 20.7805 61.6749C19.8425 67.4399 23.7679 72.8718 29.5483 73.8073C35.3287 74.7428 40.775 70.8278 41.7131 65.0627Z" fill="#FFB9B9"/>
<path d="M21.8389 64.0297C21.8389 64.0297 21.0436 77.5129 19.9833 78.8348C18.923 80.1567 31.1167 79.8923 31.1167 79.8923C31.1167 79.8923 30.3214 68.5241 31.1167 67.4666C31.9119 66.4091 21.8389 64.0297 21.8389 64.0297Z" fill="#FFB9B9"/>
<path d="M41.5858 146.119C41.5858 146.119 11.6317 143.476 6.06641 146.119C6.06641 146.119 8.11514 138.539 7.58577 137.747C7.20077 137.168 8.26295 115.576 7.92952 103.121C7.74046 96.0925 6.11453 89.2289 10.8411 84.011C12.4498 82.2385 14.2442 80.7506 16.1382 80.0238C16.1382 80.0238 15.6088 75.0013 18.2591 74.7373C18.2591 74.7373 28.3344 73.6779 32.0434 76.8526C33.2293 77.8605 33.9753 80.9323 34.0543 83.579C32.2187 92.5819 32.8684 102.572 34.5528 112.936C34.6559 113.594 34.7693 114.256 34.8828 114.918C36.6702 125.196 39.3721 135.793 41.5858 146.119Z" fill="#575A89"/>
<path d="M25.708 66.4849C26.6047 66.4315 27.4803 66.7338 28.3708 66.8517C31.5567 67.2735 34.8711 64.9678 35.5745 61.8401C35.6309 61.4236 35.7554 61.0192 35.943 60.6428C36.4333 59.8444 37.55 59.6922 38.4705 59.8758C39.3911 60.0594 40.2637 60.4891 41.2012 60.5382C42.6487 60.6139 44.0384 59.7251 44.8098 58.5012C45.5388 57.2386 45.8488 55.7783 45.6955 54.3294L45.0016 55.0557C44.7196 54.4608 44.6107 53.7988 44.6874 53.1452C44.3197 53.0476 43.9329 53.0457 43.5643 53.1398C43.1956 53.2338 42.8573 53.4207 42.5818 53.6826C41.97 53.7475 42.4318 52.5506 41.9772 52.137C41.7561 52.0015 41.4926 51.9524 41.2374 51.999C39.9357 52.0115 38.8827 51.0185 37.8569 50.2191C36.0796 48.8372 34.0013 47.8917 31.7898 47.4591C30.32 47.1731 28.7569 47.1272 27.363 47.6731C26.2377 48.1769 25.2221 48.8954 24.3735 49.7881C22.1911 51.881 20.2585 54.3402 19.3506 57.2208C18.6125 59.5803 18.5916 62.1049 19.2905 64.4762C19.6564 65.7077 20.7589 69.9253 22.373 70.0235C24.4012 70.1469 23.1835 66.6351 25.708 66.4849Z" fill="#2F2E41"/>
<path d="M30.0985 83.2362L33.8973 83.6421C33.8973 83.6421 37.6264 90.8576 37.3556 92.3626C37.0847 93.8676 36.495 92.9539 38.1734 95.3618C39.8518 97.7698 44.6144 103.994 45.2042 104.907C45.7939 105.821 61.872 93.5865 60.8724 89.9208C60.8724 89.9208 65.9504 93.554 68.1258 94.0376C68.1258 94.0376 51.5561 115.711 49.247 118.485C46.938 121.258 45.0796 120.689 41.9064 119.044C38.7331 117.4 22.6797 100.996 22.6797 100.996L30.0985 83.2362Z" fill="#575A89"/>
<path opacity="0.1" d="M34.883 114.918L21.6797 101.749L25.0209 100.662L34.553 112.936C34.6562 113.594 34.7696 114.256 34.883 114.918Z" fill="#1C1F25"/>
</g>
<defs>
<clipPath id="clip0_4613_3733">
<rect width="332" height="250" fill="white"/>
</clipPath>
</defs>
</svg>
