<svg width="542" height="505" viewBox="0 0 542 505" fill="none" xmlns="http://www.w3.org/2000/svg">
<path d="M93.9192 33.1831C193.986 -49.4466 239.957 45.9351 306.954 64.9832C373.95 84.0323 432.105 57.9136 457.39 150.676C482.675 243.438 358.728 351.606 224.746 330.169C90.7646 308.732 1.62857 109.391 93.9192 33.1831Z" fill="#EBF3FF"/>
<path d="M304.684 23.7477C297.673 12.0531 272.177 12.7905 268.911 27.54C265.645 42.2895 248.578 43.9759 250.369 53.6675C252.16 63.3603 237.2 55.7746 235.62 70.419C234.04 85.0633 265.639 112.793 298.566 95.6097C331.492 78.4265 306.628 64.101 309.367 55.3024C312.107 46.5037 315.72 40.3939 311.859 36.7057C307.998 33.0186 313.065 25.3277 304.684 23.7477Z" fill="#4A0945"/>
<path d="M308.971 319.16L308.936 319.244C308.941 319.191 308.948 319.16 308.948 319.16H308.971Z" fill="#2B022B"/>
<path d="M342.17 330.18L334.338 339.497L306.731 335.057C307.518 328.489 308.794 320.16 308.936 319.244L308.971 319.16H329.909C329.909 319.16 335.431 324.02 342.17 330.18Z" fill="#FF94A9"/>
<path d="M366.26 355.297C365.101 358.454 336.022 351.188 327.279 349.398C318.536 347.606 306.204 346.448 306.104 342.339C306.069 341.044 306.341 338.26 306.731 335.056L334.338 339.496L342.17 330.179C353 340.075 366.975 353.347 366.26 355.297Z" fill="#2B022B"/>
<path d="M294.651 296.895L282.536 298.076L265.91 275.595C271.065 271.451 277.804 266.391 278.546 265.835L278.629 265.801L293.594 280.445C293.594 280.445 294.142 287.779 294.651 296.895Z" fill="#FF94A9"/>
<path d="M294.301 331.696C291.265 333.143 275.563 307.612 270.567 300.216C265.57 292.821 257.567 283.368 260.369 280.362C261.249 279.412 263.391 277.612 265.911 275.594L282.538 298.075L294.652 296.894C295.47 311.543 296.176 330.802 294.301 331.696Z" fill="#2B022B"/>
<path d="M306.903 132.759C306.903 132.759 346.797 192.654 349.887 203.329C352.977 214.005 295.103 285.927 295.103 285.927C295.103 285.927 272.628 271.318 273.751 267.946C274.875 264.575 314.424 204.851 314.424 204.851C314.424 204.851 274.257 152.479 277.235 143.769C280.214 135.059 292.737 126.047 292.737 126.047" fill="#2B022B"/>
<path d="M250.369 138.421C244.469 180.409 271.537 209.627 292.419 236.317C296.443 278.459 306.558 327.062 307.401 326.219C308.243 325.376 332.685 322.847 331.843 320.038C331 317.229 326.786 229.293 324.257 222.27C321.728 215.246 286.049 134.483 286.049 134.483L258.377 141.698" fill="#4A0945"/>
<path d="M354.705 141.562C355.513 131.784 356.145 126.257 352.422 131.244C348.7 136.23 347.786 140.655 347.786 140.655" fill="#FF94A9"/>
<path d="M267.738 144.647L269.004 126.994L269.507 119.977L270.086 111.808L270.589 104.796L271.174 96.6265L271.677 89.615L272.233 81.8474L274.29 64.4736L292.397 65.5912L302.63 79.8499C302.63 79.8499 303.092 82.4336 303.795 86.548C304.132 88.5225 304.523 90.8455 304.948 93.4051C305.362 95.8825 305.805 98.578 306.254 101.392C306.614 103.62 306.975 105.926 307.335 108.249C307.749 110.915 308.151 113.61 308.535 116.248C308.878 118.607 309.197 120.918 309.487 123.122C310.031 127.19 310.462 130.902 310.723 133.899C312.123 150.268 293.022 144.22 267.738 144.647Z" fill="white"/>
<path d="M309.486 123.122L269.003 126.995L269.506 119.978L308.534 116.248C308.877 118.606 309.196 120.918 309.486 123.122Z" fill="#EAEAEA"/>
<path d="M307.334 108.249L270.085 111.808L270.588 104.796L306.253 101.391C306.613 103.621 306.974 105.926 307.334 108.249Z" fill="#EAEAEA"/>
<path d="M304.945 93.4051L271.173 96.6266L271.676 89.615L303.793 86.547C304.13 88.5226 304.52 90.8455 304.945 93.4051Z" fill="#EAEAEA"/>
<path d="M351.546 127.078L337.394 136.229L319.104 108.51C322.882 102.013 329.012 97.491 333.363 94.8898C340.816 107.806 351.546 127.078 351.546 127.078Z" fill="#FF94A9"/>
<path d="M333.362 94.8887C329.011 97.49 322.881 102.012 319.103 108.509L314.954 102.219C315.214 102.656 316.828 105.961 313.582 117.157C310.07 129.276 315.971 144.586 315.551 144.309C315.126 144.025 306.56 136.115 303.751 123.352C300.937 110.595 295.085 70.7926 290.356 64.1427C311.685 67.0453 323.904 80.2104 326.646 83.7452C327.48 84.8157 330.111 89.249 333.362 94.8887Z" fill="#4CA1FF"/>
<path d="M247.905 118.883C247.905 118.883 235.058 101.464 240.115 84.6074C245.171 67.7508 273.219 64.1437 273.219 64.1437C273.219 64.1437 282.116 85.3098 280.431 112.35C278.745 139.39 269.333 170.998 266.524 170.154C263.714 169.311 241.268 162.486 238.936 152.835C239.974 146.555 250.217 126.187 247.905 118.883Z" fill="#4CA1FF"/>
<path d="M318.146 150.018L334.445 113.581C334.82 112.741 335.941 112.174 336.948 112.313L358.839 115.339C359.846 115.478 361.748 117.64 361.372 118.481L343.684 153.548C343.308 154.388 342.187 154.955 341.18 154.816L319.915 153.418C318.908 153.28 317.77 150.857 318.146 150.018Z" fill="#90A6FF"/>
<path d="M320.56 153.629L342.45 156.657C343.457 156.796 344.579 156.228 344.954 155.389L361.253 118.952C361.629 118.113 361.116 117.319 360.109 117.18L338.219 114.154C337.211 114.015 336.09 114.582 335.715 115.422L319.416 151.859C319.039 152.697 319.552 153.49 320.56 153.629Z" fill="#C7DDFF"/>
<path d="M352.872 127.054C353.924 127.199 355.094 126.607 355.485 125.73L357.375 121.506C357.768 120.629 357.233 119.802 356.181 119.656C355.129 119.511 353.959 120.104 353.567 120.98L351.678 125.204C351.285 126.08 351.82 126.908 352.872 127.054Z" fill="#4A0945"/>
<path d="M247.905 118.883C252.757 109.892 264.697 108.347 264.697 108.347L273.219 128.154L312.037 134.884C312.037 134.884 316.111 131.999 318.586 131.683C321.061 131.368 328.015 127.152 329.754 128.101C331.491 129.049 324.644 135.476 324.644 135.476C324.644 135.476 327.699 136.161 332.072 136.583C336.444 137.005 341.923 134.898 341.396 137.531C340.869 140.165 334.337 148.699 328.543 149.014C322.749 149.33 311.686 146.415 311.686 146.415L268.548 145.651C264.547 145.58 260.901 143.344 259.024 139.81L247.905 118.883Z" fill="#FF94A9"/>
<path d="M264.697 108.348L258.376 90.7787" stroke="#0063BC" stroke-width="1.18229" stroke-miterlimit="10" stroke-linecap="round" stroke-linejoin="round"/>
<path d="M314.954 102.219C308.419 92.122 307.471 83.9052 307.471 83.9052" stroke="#0063BC" stroke-width="1.18229" stroke-miterlimit="10" stroke-linecap="round" stroke-linejoin="round"/>
<path d="M346.5 151.93C341.092 151.228 342.8 144.378 342.8 140.937C342.8 137.495 342.87 134.405 344.697 134.193C346.523 133.983 352.071 137.986 353.757 137.845C355.443 137.705 356.474 145.539 346.5 151.93Z" fill="#FF94A9"/>
<path d="M292.419 58.3375C291.975 60.6605 291.626 63.1729 291.325 65.2603C291.254 65.7567 291.184 66.23 291.118 66.6672C290.917 68.0149 290.745 69.0614 290.575 69.5753C290.113 70.9876 286.525 73.8606 281.578 71.6856C276.629 69.504 273.295 67.0387 273.218 64.1427C273.218 64.1427 275.955 55.3999 276.842 49.6068C276.931 49.0151 277.002 48.4541 277.054 47.9336C277.096 47.4427 277.119 46.988 277.114 46.5859L278.249 47.4548L278.952 47.9928L292.419 58.3375Z" fill="#FF94A9"/>
<path d="M292.419 58.3375C291.975 60.6605 291.627 63.173 291.325 65.2603C291.254 65.7567 291.184 66.23 291.118 66.6672C280.673 69.1205 276.86 61.365 276.842 49.6068C276.842 49.0568 276.847 48.4957 276.866 47.9282L277.056 47.9336L278.954 47.9928L292.419 58.3375Z" fill="#D9568E"/>
<path d="M304.684 32.3425C294.656 41.2102 280.404 37.0114 280.404 37.0114C280.404 37.0114 280.243 46.0577 279.015 46.9551C277.788 47.8525 278.831 39.5162 273.553 40.3304C268.275 41.1445 271.156 50.9271 276.701 49.5432C276.701 49.5432 280.343 63.1828 292.127 62.6349C303.91 62.0881 304.122 49.4183 304.684 32.3425Z" fill="#FF94A9"/>
<path d="M292.59 55.7702C292.46 57.2187 291.182 58.2893 289.732 58.16C288.283 58.0307 287.213 56.7509 287.342 55.3023L292.59 55.7702Z" fill="white"/>
<path d="M274.658 47.2937C277.009 47.24 275.999 42.7892 273.556 43.5058" stroke="#D9568E" stroke-width="0.591143" stroke-miterlimit="10" stroke-linecap="round" stroke-linejoin="round"/>
<path d="M293.796 44.5029C293.892 44.6826 295.242 47.5118 296.228 49.5805C296.737 50.6478 296.052 51.9002 294.878 52.047L291.783 52.4371" stroke="#D9568E" stroke-width="0.591143" stroke-miterlimit="10" stroke-linecap="round" stroke-linejoin="round"/>
<path d="M286.814 47.1272C286.681 47.7254 287.058 48.3171 287.657 48.4497C288.255 48.5823 288.846 48.2053 288.979 47.6071C289.112 47.0088 288.735 46.4171 288.136 46.2845C287.539 46.152 286.946 46.5289 286.814 47.1272Z" fill="#4A0945"/>
<path d="M298.97 46.0829C298.837 46.6812 299.214 47.2729 299.812 47.4054C300.411 47.538 301.002 47.1611 301.135 46.5628C301.267 45.9646 300.89 45.3729 300.292 45.2403C299.694 45.1077 299.102 45.4857 298.97 46.0829Z" fill="#4A0945"/>
<path d="M289.961 43.1848C289.961 43.1848 287.167 41.5576 285.251 43.8663" stroke="#4A0945" stroke-width="0.591143" stroke-miterlimit="10" stroke-linecap="round"/>
<path d="M301.998 42.707C301.998 42.707 299.204 41.0798 297.289 43.3885" stroke="#4A0945" stroke-width="0.591143" stroke-miterlimit="10" stroke-linecap="round"/>
<path opacity="0.41" d="M459.984 143.734L380.682 158.962C378.963 159.292 377.838 158.279 378.169 156.697L388.689 106.435C389.02 104.854 390.682 103.305 392.401 102.975L471.703 87.7468C473.422 87.417 474.548 88.4306 474.217 90.0117L463.697 140.274C463.366 141.855 461.704 143.404 459.984 143.734Z" fill="#6D4AFF"/>
<path opacity="0.41" d="M463.356 147.455L384.054 162.683C382.335 163.013 381.21 162 381.541 160.418L392.061 110.157C392.392 108.575 394.054 107.026 395.773 106.696L475.075 91.4679C476.794 91.1381 477.919 92.1516 477.588 93.7327L467.068 143.995C466.738 145.576 465.075 147.125 463.356 147.455Z" stroke="#6D4AFF" stroke-width="0.591143" stroke-miterlimit="10"/>
<path d="M392.791 134.726C400.865 133.176 400.424 139.397 407.825 137.975C415.227 136.554 417.718 125.683 423.101 124.65C428.484 123.616 426.327 128.781 430.7 127.941C435.074 127.102 434.622 118.973 443.481 117.272C452.341 115.571 451.256 106.872 463.479 104.525" stroke="white" stroke-width="1.77343" stroke-miterlimit="10" stroke-linecap="round" stroke-linejoin="round"/>
<path d="M397.562 111.936L404.071 110.686" stroke="white" stroke-width="1.77343" stroke-miterlimit="10" stroke-linecap="round" stroke-linejoin="round"/>
<path d="M396.59 116.576L408.702 114.25" stroke="white" stroke-width="1.77343" stroke-miterlimit="10" stroke-linecap="round" stroke-linejoin="round"/>
<path d="M409.909 249.013L383.94 258.957L361.421 238.5L387.389 228.557L409.909 249.013Z" fill="#A275FF"/>
<path d="M417.319 222.212L409.909 249.013L387.389 228.557L394.8 201.756L417.319 222.212Z" fill="#6D4AFF"/>
<path d="M361.421 238.5L369.056 211.902L394.8 201.756L387.389 228.557L361.421 238.5Z" fill="#CAB1FF"/>
<path d="M455.88 208.453L450.319 181.208L474.182 162.337L479.744 189.582L455.88 208.453Z" fill="#A275FF"/>
<path d="M481.11 220.146L455.881 208.453L479.744 189.582L504.973 201.276L481.11 220.146Z" fill="#6D4AFF"/>
<path d="M474.182 162.337L499.173 174.218L504.973 201.276L479.744 189.582L474.182 162.337Z" fill="#CAB1FF"/>
<path opacity="0.41" d="M387.083 196.965L328.768 208.163C326.786 208.544 325.488 207.376 325.87 205.552L336.345 155.505C336.726 153.683 338.643 151.897 340.624 151.517L398.939 140.318C400.921 139.938 402.219 141.106 401.837 142.93L391.362 192.977C390.982 194.799 389.066 196.585 387.083 196.965Z" fill="#6D4AFF"/>
<path opacity="0.41" d="M382.74 192.123L324.424 203.322C322.442 203.702 321.145 202.534 321.526 200.71L332.001 150.663C332.383 148.841 334.299 147.055 336.28 146.674L394.596 135.475C396.578 135.095 397.875 136.263 397.494 138.087L387.019 188.134C386.639 189.957 384.722 191.743 382.74 192.123Z" stroke="#6D4AFF" stroke-width="0.591143" stroke-miterlimit="10"/>
<path d="M382.244 170.711C380.289 180.049 370.468 189.2 360.318 191.148C350.162 193.098 343.515 187.11 345.47 177.771C347.425 168.433 357.239 159.283 367.396 157.334L363.856 174.241L380.372 160.862C382.326 163.275 383.088 166.678 382.244 170.711Z" fill="white"/>
<path d="M380.374 160.862L363.858 174.241L367.397 157.334C373.166 156.226 377.801 157.686 380.374 160.862Z" fill="#6D4AFF"/>
<path opacity="0.41" d="M325.055 183.859L354.525 123.355L398.088 106.251" stroke="#6D4AFF" stroke-width="0.591143" stroke-miterlimit="10"/>
<path opacity="0.41" d="M361.421 238.5L354.525 123.354L417.319 222.212" stroke="#6D4AFF" stroke-width="0.591143" stroke-miterlimit="10"/>
<path opacity="0.41" d="M474.183 162.337L354.525 123.354L455.881 208.453" stroke="#6D4AFF" stroke-width="0.591143" stroke-miterlimit="10"/>
<path d="M133.924 303.649C133.924 303.649 139.461 348.61 141.136 349.681C142.811 350.751 165.085 301.902 163.611 300.27C162.135 298.639 150.707 288.828 150.707 288.828" fill="#8136FF"/>
<path d="M123.913 316.27C123.913 316.27 109.613 359.254 110.666 360.94C111.72 362.626 152.807 328.07 152.175 325.963C151.543 323.856 145.434 310.089 145.434 310.089" fill="#A275FF"/>
<path d="M145.734 158.751C145.734 158.751 124.517 207.545 122.227 217.237C119.937 226.93 139.873 301.1 139.873 301.1L155.475 293.093L151.543 220.75L175.563 164.293" fill="#2B022B"/>
<path d="M173 166.217C173 166.217 111.929 209.511 104.063 218.22C96.1964 226.929 123.912 316.27 123.912 316.27C123.912 316.27 146.279 310.651 145.433 310.089C144.587 309.527 134.832 234.85 134.832 234.85C134.832 234.85 192.278 211.477 200.426 196.868C208.574 182.258 208.291 168.211 208.291 168.211" fill="#4A0945"/>
<path d="M152.534 122.325C146.15 129.394 137.755 138.652 137.111 139.172C136.059 140.012 108.452 142.051 108.452 142.051L109.321 127.16L128.682 123.89C128.682 123.89 133.73 116.365 140.257 107.817C147.45 111.86 151.074 118.789 152.534 122.325Z" fill="#D9568E"/>
<path d="M220.944 146.333C219.697 147.421 218.402 148.443 217.071 149.389C217.071 149.389 216.575 150.654 215.835 152.599C215.351 153.858 214.771 155.396 214.157 157.057C213.347 159.226 212.484 161.596 211.715 163.82C210.403 167.579 209.351 170.925 209.28 172.149C209.067 175.519 195.056 176.678 179.881 172.888C164.712 169.092 143.537 159.085 143.75 156.661C143.915 154.746 148.106 149.112 150.572 144.95H150.577C151.051 144.152 151.458 143.407 151.765 142.751C151.883 142.502 151.984 142.272 152.066 142.053C152.444 141.066 153.142 138.748 153.964 135.852C154.401 134.31 154.875 132.607 155.354 130.851C155.998 128.487 156.66 126.034 157.269 123.763C158.611 118.721 159.686 114.577 159.752 114.322L159.722 114.352C159.35 114.76 156.294 118.165 152.534 122.327C152.421 122.06 152.304 121.771 152.162 121.463C150.501 117.756 146.907 111.556 140.256 107.819C147.846 97.8822 157.446 86.5612 163.447 84.0728C174.613 79.4379 200.635 85.3384 200.635 85.3384L204.644 85.7581C204.644 85.7581 227.397 90.6768 235.266 103.599C242.468 115.434 234.481 134.564 220.944 146.333Z" fill="#A275FF"/>
<path d="M214.157 157.057C213.348 159.226 212.484 161.596 211.716 163.82C194.851 160.574 170.808 153.273 151.767 142.751C151.885 142.502 151.986 142.272 152.068 142.053C152.446 141.066 153.144 138.748 153.966 135.852C173.201 146.789 197.983 154.048 214.157 157.057Z" fill="#C1B0FF"/>
<path d="M220.943 146.333C219.696 147.421 218.401 148.443 217.071 149.389C217.071 149.389 216.575 150.654 215.835 152.599C198.55 149.164 174.241 141.633 155.354 130.85C155.999 128.486 156.66 126.032 157.27 123.762C177.387 135.675 204.337 143.437 220.943 146.333Z" fill="#C1B0FF"/>
<path d="M104.789 139.268C107.741 135.723 107.365 129.756 111.403 132.409C115.441 135.061 113.263 142.887 113.263 142.887" fill="#FF94A9"/>
<path d="M141.411 161.265L131.96 122.485C131.742 121.592 130.742 120.831 129.726 120.786L107.649 119.811C106.633 119.766 104.372 121.55 104.59 122.443L115.655 160.128C115.873 161.021 116.874 161.782 117.89 161.826L139.058 164.292C140.072 164.336 141.628 162.158 141.411 161.265Z" fill="#90A6FF"/>
<path d="M138.385 164.382L116.308 163.405C115.293 163.361 114.292 162.6 114.074 161.707L104.623 122.926C104.405 122.033 105.052 121.345 106.068 121.39L128.144 122.365C129.16 122.41 130.161 123.17 130.379 124.065L139.83 162.846C140.048 163.74 139.401 164.427 138.385 164.382Z" fill="#C7DDFF"/>
<path d="M111.403 132.407C110.342 132.36 109.298 131.567 109.071 130.635L107.975 126.139C107.747 125.206 108.423 124.489 109.484 124.536C110.545 124.583 111.589 125.376 111.816 126.309L112.912 130.804C113.139 131.737 112.463 132.455 111.403 132.407Z" fill="#4A0945"/>
<path d="M105.364 138.665C111.172 139.445 119.126 137.873 121.063 138.792C123 139.712 124.162 151.667 120.42 152.993C116.679 154.319 111.023 154.936 108.197 152.346C105.371 149.757 102.411 140.754 105.364 138.665Z" fill="#FF94A9"/>
<path d="M200.427 136.465L184.69 152.9L149.436 144.682C149.436 144.682 136.161 131.899 134.476 133.689C132.791 135.481 136.793 143.698 136.793 143.698C136.793 143.698 119.937 141.801 118.883 142.433C117.83 143.065 123.202 155.918 129.208 157.393C135.213 158.868 148.593 158.763 148.593 158.763L184.89 170.667C188.928 171.99 193.364 171.038 196.503 168.173L217.073 149.387C217.073 149.389 217.284 137.132 200.427 136.465Z" fill="#FF94A9"/>
<path d="M200.427 136.465L214.755 116.096" stroke="#6D38C9" stroke-width="1.18229" stroke-miterlimit="10" stroke-linecap="round" stroke-linejoin="round"/>
<path d="M159.722 114.35L163.343 102.401" stroke="#6D38C9" stroke-width="1.18229" stroke-miterlimit="10" stroke-linecap="round" stroke-linejoin="round"/>
<path d="M183.369 52.7615C174.72 46.6506 176.514 40.9616 179.901 41.0318C183.288 41.1019 185.587 42.0146 185.587 42.0146C185.587 42.0146 181.452 37.1682 184.478 34.6393C187.503 32.1104 212.998 39.4857 216.72 43.6998C220.443 47.914 217.212 55.7101 217.212 55.7101C217.212 55.7101 224.868 59.3292 218.267 66.2991C211.665 73.269 207.169 78.4672 203.237 77.2027" fill="#4A0945"/>
<path d="M206.607 86.9491C205.903 89.7575 202.114 91.4416 196.811 92.5001C191.509 93.552 188.629 89.97 188.488 88.4919C188.417 87.7709 188.535 86.1394 188.689 84.1178C188.849 82.0129 189.049 79.4829 189.12 77.1183L205.312 69.5688L206.607 68.9661C205.484 73.8136 206.607 86.9491 206.607 86.9491Z" fill="#FF94A9"/>
<path d="M205.484 69.5995C204.461 78.8572 197.982 86.8966 188.689 84.1178C188.849 82.0129 189.05 79.4829 189.121 77.1183L205.313 69.5688L205.484 69.5995Z" fill="#D9568E"/>
<path d="M182.782 47.2521C190.651 58.0823 205.474 57.0709 205.474 57.0709C205.474 57.0709 203.671 65.9364 204.674 67.0782C205.678 68.2199 206.465 59.8552 211.442 61.7946C216.419 63.734 211.486 72.6587 206.372 70.1067C206.372 70.1067 199.861 82.6331 188.476 79.5453C177.092 76.4576 179.631 64.0441 182.782 47.2521Z" fill="#FF94A9"/>
<path d="M208.855 68.3536C206.573 67.7915 208.522 63.665 210.752 64.8944" stroke="#D9568E" stroke-width="0.591143" stroke-miterlimit="10" stroke-linecap="round" stroke-linejoin="round"/>
<path d="M191.191 61.7694C191.059 61.9239 189.127 64.3937 187.717 66.1994C186.989 67.1308 187.387 68.5015 188.5 68.9004L191.438 69.9523" stroke="#D9568E" stroke-width="0.591143" stroke-miterlimit="10" stroke-linecap="round" stroke-linejoin="round"/>
<path d="M199.493 66.3002C199.493 66.9127 198.997 67.4091 198.384 67.4091C197.772 67.4091 197.275 66.9127 197.275 66.3002C197.275 65.6877 197.772 65.1913 198.384 65.1913C198.997 65.1913 199.493 65.6877 199.493 66.3002Z" fill="#4A0945"/>
<path d="M185.798 62.1913C185.798 62.8038 185.301 63.3001 184.689 63.3001C184.076 63.3001 183.58 62.8038 183.58 62.1913C183.58 61.5788 184.076 61.0824 184.689 61.0824C185.301 61.0824 185.798 61.5788 185.798 62.1913Z" fill="#4A0945"/>
<path d="M197.275 61.7694C197.275 61.7694 200.355 60.7865 201.725 63.4546" stroke="#4A0945" stroke-width="0.591143" stroke-miterlimit="10" stroke-linecap="round"/>
<path d="M183.573 58.239C183.573 58.239 186.653 57.2561 188.022 59.9242" stroke="#4A0945" stroke-width="0.591143" stroke-miterlimit="10" stroke-linecap="round"/>
<path d="M191.009 73.3336C191.009 73.3336 193.023 74.5335 195.367 73.0641" stroke="#D9568E" stroke-width="0.591143" stroke-miterlimit="10" stroke-linecap="round" stroke-linejoin="round"/>
<path opacity="0.45" d="M36.8768 186.837L116.179 202.066C117.898 202.396 119.023 201.382 118.692 199.801L108.172 149.539C107.841 147.958 106.179 146.409 104.46 146.079L25.158 130.849C23.4388 130.519 22.3135 131.533 22.6444 133.114L33.1644 183.376C33.4953 184.958 35.1565 186.508 36.8768 186.837Z" fill="#4CA1FF"/>
<path opacity="0.45" d="M31.9766 190.136L111.278 205.364C112.998 205.694 114.123 204.68 113.793 203.099L103.273 152.837C102.942 151.256 101.28 149.707 99.5608 149.377L20.2589 134.148C18.5397 133.819 17.4133 134.832 17.7442 136.413L28.2643 186.675C28.5952 188.255 30.2574 189.805 31.9766 190.136Z" stroke="#4CA1FF" stroke-width="0.591143" stroke-miterlimit="10"/>
<path d="M96.4837 159.99L37.845 147.068" stroke="white" stroke-width="1.77343" stroke-miterlimit="10" stroke-linecap="round" stroke-linejoin="round"/>
<path d="M98.0374 168.609L39.3987 155.688" stroke="white" stroke-width="1.77343" stroke-miterlimit="10" stroke-linecap="round" stroke-linejoin="round"/>
<path d="M99.5899 177.228L40.9512 164.307" stroke="white" stroke-width="1.77343" stroke-miterlimit="10" stroke-linecap="round" stroke-linejoin="round"/>
<path d="M101.144 185.848L64.2949 177.728" stroke="white" stroke-width="1.77343" stroke-miterlimit="10" stroke-linecap="round" stroke-linejoin="round"/>
<path opacity="0.45" d="M114.347 224.067L161.803 233.18C162.832 233.377 163.506 232.771 163.308 231.825L157.012 201.747C156.813 200.8 155.818 199.873 154.79 199.676L107.334 190.563C106.305 190.366 105.631 190.973 105.829 191.918L112.125 221.996C112.324 222.943 113.319 223.87 114.347 224.067Z" fill="#4CA1FF"/>
<path opacity="0.45" d="M110.533 227.719L157.989 236.832C159.018 237.029 159.692 236.423 159.493 235.477L153.197 205.399C152.999 204.453 152.004 203.525 150.976 203.328L103.52 194.215C102.492 194.018 101.818 194.625 102.016 195.57L108.312 225.648C108.51 226.595 109.504 227.522 110.533 227.719Z" stroke="#4CA1FF" stroke-width="0.591143" stroke-miterlimit="10"/>
<path d="M150.017 208L114.927 200.268" stroke="white" stroke-width="1.06132" stroke-miterlimit="10" stroke-linecap="round" stroke-linejoin="round"/>
<path d="M150.948 213.159L115.857 205.427" stroke="white" stroke-width="1.06132" stroke-miterlimit="10" stroke-linecap="round" stroke-linejoin="round"/>
<path d="M151.877 218.317L116.786 210.584" stroke="white" stroke-width="1.06132" stroke-miterlimit="10" stroke-linecap="round" stroke-linejoin="round"/>
<path d="M152.806 223.474L130.755 218.616" stroke="white" stroke-width="1.06132" stroke-miterlimit="10" stroke-linecap="round" stroke-linejoin="round"/>
<path d="M89.7813 294.611L73.7607 271.881L88.0566 245.026L104.076 267.754L89.7813 294.611Z" fill="#4CA1FF"/>
<path d="M117.582 295.207L89.7815 294.611L104.076 267.754L131.877 268.352L117.582 295.207Z" fill="#0063BC"/>
<path d="M88.0564 245.026L115.715 245.889L131.877 268.352L104.076 267.754L88.0564 245.026Z" fill="#80C3FF"/>
<path d="M41.5833 117.954L39.3984 105.53L50.4532 97.2697L52.6381 109.693L41.5833 117.954Z" fill="#4CA1FF"/>
<path d="M52.8782 123.568L41.5835 117.954L52.6383 109.693L63.933 115.308L52.8782 123.568Z" fill="#0063BC"/>
<path d="M50.4531 97.2697L61.6383 102.966L63.9327 115.308L52.638 109.693L50.4531 97.2697Z" fill="#80C3FF"/>
<path opacity="0.45" d="M22.772 131.748L110.444 128.472L118.692 199.801" stroke="#4CA1FF" stroke-width="0.591143" stroke-miterlimit="10"/>
<path opacity="0.45" d="M107.334 190.563L110.444 128.472L157.012 201.747" stroke="#4CA1FF" stroke-width="0.591143" stroke-miterlimit="10"/>
<path opacity="0.45" d="M73.7607 271.881L110.444 128.472L131.877 268.352" stroke="#4CA1FF" stroke-width="0.591143" stroke-miterlimit="10"/>
<path opacity="0.45" d="M50.4536 97.2697L110.444 128.472L52.8784 123.568" stroke="#4CA1FF" stroke-width="0.591143" stroke-miterlimit="10"/>
<path d="M238.162 437.027H234.974C234.884 436.505 234.716 436.042 234.472 435.638C234.227 435.229 233.923 434.882 233.56 434.598C233.196 434.314 232.781 434.101 232.315 433.959C231.855 433.811 231.358 433.738 230.824 433.738C229.875 433.738 229.034 433.976 228.301 434.453C227.568 434.925 226.994 435.618 226.58 436.533C226.165 437.442 225.957 438.553 225.957 439.865C225.957 441.201 226.165 442.326 226.58 443.24C227 444.149 227.574 444.837 228.301 445.303C229.034 445.763 229.872 445.993 230.815 445.993C231.338 445.993 231.827 445.925 232.281 445.789C232.741 445.647 233.153 445.439 233.517 445.167C233.886 444.894 234.196 444.559 234.446 444.161C234.702 443.763 234.878 443.309 234.974 442.797L238.162 442.814C238.043 443.644 237.784 444.422 237.386 445.149C236.994 445.877 236.48 446.519 235.844 447.076C235.207 447.627 234.463 448.059 233.611 448.371C232.759 448.678 231.813 448.831 230.773 448.831C229.239 448.831 227.869 448.476 226.665 447.766C225.46 447.056 224.511 446.03 223.818 444.689C223.125 443.348 222.778 441.74 222.778 439.865C222.778 437.985 223.128 436.377 223.827 435.042C224.526 433.701 225.477 432.675 226.682 431.965C227.886 431.255 229.25 430.899 230.773 430.899C231.744 430.899 232.648 431.036 233.483 431.309C234.318 431.581 235.063 431.982 235.716 432.51C236.369 433.033 236.906 433.675 237.327 434.436C237.753 435.192 238.031 436.056 238.162 437.027ZM246.631 448.848C245.353 448.848 244.245 448.567 243.308 448.005C242.37 447.442 241.643 446.655 241.126 445.644C240.614 444.632 240.359 443.451 240.359 442.098C240.359 440.746 240.614 439.561 241.126 438.544C241.643 437.527 242.37 436.738 243.308 436.175C244.245 435.613 245.353 435.331 246.631 435.331C247.91 435.331 249.018 435.613 249.955 436.175C250.893 436.738 251.617 437.527 252.129 438.544C252.646 439.561 252.904 440.746 252.904 442.098C252.904 443.451 252.646 444.632 252.129 445.644C251.617 446.655 250.893 447.442 249.955 448.005C249.018 448.567 247.91 448.848 246.631 448.848ZM246.648 446.377C247.342 446.377 247.921 446.186 248.387 445.806C248.853 445.419 249.2 444.902 249.427 444.255C249.66 443.607 249.776 442.885 249.776 442.09C249.776 441.289 249.66 440.564 249.427 439.917C249.2 439.263 248.853 438.743 248.387 438.357C247.921 437.97 247.342 437.777 246.648 437.777C245.938 437.777 245.347 437.97 244.876 438.357C244.41 438.743 244.06 439.263 243.827 439.917C243.6 440.564 243.487 441.289 243.487 442.09C243.487 442.885 243.6 443.607 243.827 444.255C244.06 444.902 244.41 445.419 244.876 445.806C245.347 446.186 245.938 446.377 246.648 446.377ZM258.608 440.922V448.593H255.523V435.502H258.472V437.726H258.625C258.926 436.993 259.406 436.411 260.065 435.979C260.73 435.547 261.551 435.331 262.528 435.331C263.432 435.331 264.219 435.524 264.889 435.911C265.565 436.297 266.088 436.857 266.457 437.59C266.832 438.323 267.017 439.212 267.011 440.257V448.593H263.926V440.735C263.926 439.86 263.699 439.175 263.244 438.681C262.795 438.186 262.173 437.939 261.378 437.939C260.838 437.939 260.358 438.059 259.938 438.297C259.523 438.53 259.196 438.868 258.957 439.311C258.724 439.755 258.608 440.292 258.608 440.922ZM273.233 440.922V448.593H270.148V435.502H273.097V437.726H273.25C273.551 436.993 274.031 436.411 274.69 435.979C275.355 435.547 276.176 435.331 277.153 435.331C278.057 435.331 278.844 435.524 279.514 435.911C280.19 436.297 280.713 436.857 281.082 437.59C281.457 438.323 281.642 439.212 281.636 440.257V448.593H278.551V440.735C278.551 439.86 278.324 439.175 277.869 438.681C277.42 438.186 276.798 437.939 276.003 437.939C275.463 437.939 274.983 438.059 274.562 438.297C274.148 438.53 273.821 438.868 273.582 439.311C273.349 439.755 273.233 440.292 273.233 440.922ZM290.568 448.848C289.256 448.848 288.122 448.576 287.168 448.03C286.219 447.479 285.489 446.701 284.977 445.695C284.466 444.684 284.21 443.493 284.21 442.124C284.21 440.777 284.466 439.595 284.977 438.578C285.494 437.556 286.216 436.76 287.142 436.192C288.068 435.618 289.156 435.331 290.406 435.331C291.213 435.331 291.974 435.462 292.69 435.723C293.412 435.979 294.048 436.377 294.599 436.917C295.156 437.456 295.594 438.144 295.912 438.979C296.23 439.809 296.389 440.797 296.389 441.945V442.891H285.659V440.811H293.432C293.426 440.22 293.298 439.695 293.048 439.235C292.798 438.769 292.449 438.402 292 438.135C291.557 437.868 291.04 437.735 290.449 437.735C289.818 437.735 289.264 437.888 288.787 438.195C288.31 438.496 287.938 438.894 287.67 439.388C287.409 439.877 287.276 440.414 287.27 440.999V442.814C287.27 443.576 287.409 444.229 287.688 444.774C287.966 445.314 288.355 445.729 288.855 446.019C289.355 446.303 289.94 446.445 290.611 446.445C291.06 446.445 291.466 446.382 291.83 446.257C292.193 446.127 292.509 445.936 292.776 445.686C293.043 445.436 293.244 445.127 293.381 444.757L296.261 445.081C296.08 445.843 295.733 446.507 295.222 447.076C294.716 447.638 294.068 448.076 293.278 448.388C292.489 448.695 291.585 448.848 290.568 448.848ZM304.71 448.848C303.403 448.848 302.281 448.561 301.343 447.988C300.411 447.414 299.692 446.621 299.187 445.61C298.687 444.593 298.437 443.422 298.437 442.098C298.437 440.769 298.692 439.595 299.204 438.578C299.715 437.556 300.437 436.76 301.369 436.192C302.306 435.618 303.414 435.331 304.692 435.331C305.755 435.331 306.695 435.527 307.513 435.919C308.337 436.306 308.994 436.854 309.482 437.564C309.971 438.269 310.249 439.093 310.317 440.036H307.369C307.249 439.405 306.965 438.88 306.516 438.459C306.073 438.033 305.479 437.82 304.735 437.82C304.104 437.82 303.55 437.99 303.073 438.331C302.596 438.667 302.224 439.149 301.957 439.78C301.695 440.411 301.565 441.167 301.565 442.047C301.565 442.939 301.695 443.706 301.957 444.348C302.218 444.985 302.585 445.476 303.056 445.823C303.533 446.164 304.093 446.334 304.735 446.334C305.19 446.334 305.596 446.249 305.954 446.078C306.317 445.902 306.621 445.649 306.866 445.32C307.11 444.99 307.278 444.59 307.369 444.118H310.317C310.244 445.044 309.971 445.865 309.499 446.581C309.028 447.292 308.386 447.848 307.573 448.252C306.761 448.649 305.806 448.848 304.71 448.848ZM319.388 435.502V437.888H311.862V435.502H319.388ZM313.72 432.365H316.805V444.655C316.805 445.07 316.868 445.388 316.993 445.61C317.124 445.826 317.294 445.973 317.504 446.053C317.714 446.132 317.947 446.172 318.203 446.172C318.396 446.172 318.572 446.158 318.732 446.13C318.896 446.101 319.021 446.076 319.107 446.053L319.626 448.465C319.462 448.522 319.226 448.584 318.919 448.652C318.618 448.72 318.249 448.76 317.811 448.772C317.038 448.794 316.342 448.678 315.723 448.422C315.104 448.161 314.612 447.757 314.249 447.212C313.891 446.667 313.714 445.985 313.72 445.167V432.365Z" fill="#7052FF"/>
<path d="M14.5909 481.593V469.956H18.8523C19.678 469.956 20.3617 470.093 20.9034 470.365C21.4451 470.634 21.8504 471 22.1193 471.462C22.3883 471.92 22.5227 472.437 22.5227 473.013C22.5227 473.498 22.4337 473.907 22.2557 474.24C22.0777 474.57 21.839 474.835 21.5398 475.036C21.2443 475.233 20.9186 475.377 20.5625 475.468V475.581C20.9489 475.6 21.3258 475.725 21.6932 475.956C22.0644 476.184 22.3712 476.507 22.6136 476.928C22.8561 477.348 22.9773 477.86 22.9773 478.462C22.9773 479.057 22.8371 479.591 22.5568 480.064C22.2803 480.534 21.8523 480.907 21.2727 481.184C20.6932 481.456 19.9527 481.593 19.0511 481.593H14.5909ZM16.3466 480.087H18.8807C19.7216 480.087 20.3239 479.924 20.6875 479.598C21.0511 479.273 21.233 478.865 21.233 478.377C21.233 478.009 21.1402 477.672 20.9545 477.365C20.7689 477.059 20.5038 476.814 20.1591 476.632C19.8182 476.451 19.4129 476.36 18.9432 476.36H16.3466V480.087ZM16.3466 474.99H18.6989C19.0928 474.99 19.447 474.915 19.7614 474.763C20.0795 474.612 20.3314 474.399 20.517 474.127C20.7064 473.85 20.8011 473.524 20.8011 473.149C20.8011 472.668 20.6326 472.265 20.2955 471.939C19.9583 471.613 19.4413 471.451 18.7443 471.451H16.3466V474.99ZM30.4517 477.973V472.865H32.1562V481.593H30.4858V480.081H30.3949C30.1941 480.547 29.8722 480.935 29.429 481.246C28.9896 481.553 28.4422 481.706 27.7869 481.706C27.2263 481.706 26.7301 481.583 26.2983 481.337C25.8703 481.087 25.5331 480.718 25.2869 480.229C25.0445 479.74 24.9233 479.136 24.9233 478.417V472.865H26.6222V478.212C26.6222 478.807 26.7869 479.28 27.1165 479.632C27.446 479.985 27.8741 480.161 28.4006 480.161C28.7188 480.161 29.035 480.081 29.3494 479.922C29.6676 479.763 29.9309 479.523 30.1392 479.201C30.3513 478.879 30.4555 478.47 30.4517 477.973ZM34.4389 481.593V472.865H36.1378V481.593H34.4389ZM35.2969 471.519C35.0014 471.519 34.7476 471.42 34.5355 471.223C34.3272 471.023 34.223 470.784 34.223 470.507C34.223 470.227 34.3272 469.988 34.5355 469.792C34.7476 469.591 35.0014 469.49 35.2969 469.49C35.5923 469.49 35.8442 469.591 36.0526 469.792C36.2647 469.988 36.3707 470.227 36.3707 470.507C36.3707 470.784 36.2647 471.023 36.0526 471.223C35.8442 471.42 35.5923 471.519 35.2969 471.519ZM40.1222 469.956V481.593H38.4233V469.956H40.1222ZM45.6747 481.763C44.9702 481.763 44.3414 481.583 43.7884 481.223C43.2391 480.86 42.8073 480.343 42.4929 479.672C42.1823 478.998 42.027 478.189 42.027 477.246C42.027 476.303 42.1842 475.496 42.4986 474.826C42.8168 474.155 43.2524 473.642 43.8054 473.286C44.3584 472.93 44.9853 472.752 45.6861 472.752C46.2277 472.752 46.6634 472.843 46.9929 473.024C47.3262 473.202 47.5838 473.411 47.7656 473.649C47.9512 473.888 48.0952 474.098 48.1974 474.28H48.2997V469.956H49.9986V481.593H48.3395V480.235H48.1974C48.0952 480.42 47.9474 480.632 47.7543 480.871C47.5649 481.11 47.3035 481.318 46.9702 481.496C46.6368 481.674 46.205 481.763 45.6747 481.763ZM46.0497 480.314C46.5384 480.314 46.9512 480.185 47.2884 479.928C47.6293 479.667 47.8868 479.305 48.0611 478.843C48.2391 478.381 48.3281 477.843 48.3281 477.229C48.3281 476.623 48.241 476.093 48.0668 475.638C47.8925 475.184 47.6368 474.829 47.2997 474.576C46.9626 474.322 46.5459 474.195 46.0497 474.195C45.5384 474.195 45.1122 474.327 44.7713 474.593C44.4304 474.858 44.1728 475.22 43.9986 475.678C43.8281 476.136 43.7429 476.653 43.7429 477.229C43.7429 477.812 43.83 478.337 44.0043 478.803C44.1785 479.269 44.4361 479.638 44.777 479.911C45.1217 480.18 45.5459 480.314 46.0497 480.314ZM56.6577 481.593V472.865H58.2884V474.286H58.3963C58.5781 473.805 58.8755 473.43 59.2884 473.161C59.7012 472.888 60.1955 472.752 60.7713 472.752C61.3546 472.752 61.8433 472.888 62.2372 473.161C62.6349 473.434 62.9285 473.809 63.1179 474.286H63.2088C63.4171 473.82 63.7486 473.449 64.2031 473.172C64.6577 472.892 65.1993 472.752 65.8281 472.752C66.6198 472.752 67.2656 473 67.7656 473.496C68.2694 473.992 68.5213 474.74 68.5213 475.74V481.593H66.8224V475.899C66.8224 475.309 66.6615 474.881 66.3395 474.615C66.0175 474.35 65.633 474.218 65.1861 474.218C64.633 474.218 64.2031 474.388 63.8963 474.729C63.5895 475.066 63.4361 475.5 63.4361 476.03V481.593H61.7429V475.792C61.7429 475.318 61.5952 474.937 61.2997 474.649C61.0043 474.362 60.6198 474.218 60.1463 474.218C59.8243 474.218 59.527 474.303 59.2543 474.473C58.9853 474.64 58.7675 474.873 58.6009 475.172C58.438 475.471 58.3565 475.818 58.3565 476.212V481.593H56.6577ZM74.5597 481.769C73.6998 481.769 72.9593 481.585 72.3381 481.218C71.7206 480.846 71.2434 480.326 70.9062 479.655C70.5729 478.981 70.4062 478.191 70.4062 477.286C70.4062 476.392 70.5729 475.604 70.9062 474.922C71.2434 474.24 71.7131 473.708 72.3153 473.326C72.9214 472.943 73.6297 472.752 74.4403 472.752C74.9328 472.752 75.41 472.833 75.8722 472.996C76.3343 473.159 76.7491 473.415 77.1165 473.763C77.4839 474.112 77.7737 474.564 77.9858 475.121C78.1979 475.674 78.304 476.346 78.304 477.138V477.74H71.3665V476.468H76.6392C76.6392 476.021 76.5483 475.625 76.3665 475.28C76.1847 474.932 75.929 474.657 75.5994 474.456C75.2737 474.256 74.8911 474.155 74.4517 474.155C73.9744 474.155 73.5578 474.273 73.2017 474.507C72.8494 474.738 72.5767 475.042 72.3835 475.417C72.1941 475.788 72.0994 476.191 72.0994 476.627V477.621C72.0994 478.204 72.2017 478.701 72.4062 479.11C72.6146 479.519 72.9044 479.831 73.2756 480.047C73.6468 480.259 74.0805 480.365 74.5767 480.365C74.8987 480.365 75.1922 480.32 75.4574 480.229C75.7225 480.134 75.9517 479.994 76.1449 479.809C76.3381 479.623 76.4858 479.394 76.5881 479.121L78.196 479.411C78.0672 479.884 77.8362 480.299 77.5028 480.655C77.1733 481.007 76.7585 481.282 76.2585 481.479C75.7623 481.672 75.196 481.769 74.5597 481.769ZM82.7287 481.786C82.1757 481.786 81.6757 481.684 81.2287 481.479C80.7817 481.271 80.4276 480.97 80.1662 480.576C79.9086 480.182 79.7798 479.699 79.7798 479.127C79.7798 478.634 79.8745 478.229 80.0639 477.911C80.2533 477.593 80.509 477.341 80.831 477.155C81.1529 476.97 81.5128 476.829 81.9105 476.735C82.3082 476.64 82.7135 476.568 83.1264 476.519C83.6491 476.458 84.0734 476.409 84.3991 476.371C84.7249 476.329 84.9616 476.263 85.1094 476.172C85.2571 476.081 85.331 475.934 85.331 475.729V475.689C85.331 475.193 85.1908 474.809 84.9105 474.536C84.634 474.263 84.2211 474.127 83.6719 474.127C83.0999 474.127 82.6491 474.254 82.3196 474.507C81.9938 474.757 81.7685 475.036 81.6435 475.343L80.0469 474.979C80.2363 474.449 80.5128 474.021 80.8764 473.695C81.2438 473.365 81.6662 473.127 82.1435 472.979C82.6207 472.827 83.1226 472.752 83.6491 472.752C83.9976 472.752 84.367 472.793 84.7571 472.877C85.151 472.956 85.5185 473.104 85.8594 473.32C86.2041 473.536 86.4863 473.845 86.706 474.246C86.9257 474.644 87.0355 475.161 87.0355 475.797V481.593H85.3764V480.399H85.3082C85.1984 480.619 85.0336 480.835 84.8139 481.047C84.5942 481.259 84.312 481.435 83.9673 481.576C83.6226 481.716 83.2098 481.786 82.7287 481.786ZM83.098 480.422C83.5677 480.422 83.9692 480.329 84.3026 480.144C84.6397 479.958 84.8954 479.716 85.0696 479.417C85.2476 479.113 85.3366 478.79 85.3366 478.445V477.32C85.276 477.381 85.1586 477.437 84.9844 477.49C84.8139 477.54 84.6188 477.583 84.3991 477.621C84.1795 477.655 83.9654 477.687 83.7571 477.718C83.5488 477.744 83.3745 477.767 83.2344 477.786C82.9048 477.827 82.6037 477.898 82.331 477.996C82.062 478.095 81.8461 478.237 81.6832 478.422C81.5241 478.604 81.4446 478.846 81.4446 479.149C81.4446 479.57 81.5999 479.888 81.9105 480.104C82.2211 480.316 82.617 480.422 83.098 480.422ZM90.9972 476.411V481.593H89.2983V472.865H90.929V474.286H91.0369C91.2377 473.824 91.5521 473.452 91.9801 473.172C92.4119 472.892 92.9555 472.752 93.6108 472.752C94.2055 472.752 94.7263 472.877 95.1733 473.127C95.6203 473.373 95.9669 473.74 96.2131 474.229C96.4593 474.718 96.5824 475.322 96.5824 476.042V481.593H94.8835V476.246C94.8835 475.613 94.7188 475.119 94.3892 474.763C94.0597 474.403 93.607 474.223 93.0312 474.223C92.6373 474.223 92.2869 474.309 91.9801 474.479C91.6771 474.649 91.4366 474.899 91.2585 475.229C91.0843 475.555 90.9972 475.949 90.9972 476.411ZM98.8608 481.593V472.865H100.56V481.593H98.8608ZM99.7188 471.519C99.4233 471.519 99.1695 471.42 98.9574 471.223C98.7491 471.023 98.6449 470.784 98.6449 470.507C98.6449 470.227 98.7491 469.988 98.9574 469.792C99.1695 469.591 99.4233 469.49 99.7188 469.49C100.014 469.49 100.266 469.591 100.474 469.792C100.687 469.988 100.793 470.227 100.793 470.507C100.793 470.784 100.687 471.023 100.474 471.223C100.266 471.42 100.014 471.519 99.7188 471.519ZM104.544 476.411V481.593H102.845V472.865H104.476V474.286H104.584C104.785 473.824 105.099 473.452 105.527 473.172C105.959 472.892 106.502 472.752 107.158 472.752C107.752 472.752 108.273 472.877 108.72 473.127C109.167 473.373 109.514 473.74 109.76 474.229C110.006 474.718 110.129 475.322 110.129 476.042V481.593H108.43V476.246C108.43 475.613 108.266 475.119 107.936 474.763C107.607 474.403 107.154 474.223 106.578 474.223C106.184 474.223 105.834 474.309 105.527 474.479C105.224 474.649 104.983 474.899 104.805 475.229C104.631 475.555 104.544 475.949 104.544 476.411ZM116.067 485.047C115.374 485.047 114.777 484.956 114.277 484.774C113.781 484.593 113.375 484.352 113.061 484.053C112.747 483.754 112.512 483.426 112.357 483.07L113.817 482.468C113.919 482.634 114.055 482.81 114.226 482.996C114.4 483.185 114.635 483.346 114.93 483.479C115.23 483.612 115.614 483.678 116.084 483.678C116.728 483.678 117.26 483.521 117.68 483.206C118.101 482.896 118.311 482.399 118.311 481.718V480.002H118.203C118.101 480.187 117.953 480.394 117.76 480.621C117.571 480.848 117.309 481.045 116.976 481.212C116.643 481.379 116.209 481.462 115.675 481.462C114.985 481.462 114.364 481.301 113.811 480.979C113.262 480.653 112.826 480.174 112.504 479.542C112.186 478.905 112.027 478.123 112.027 477.195C112.027 476.267 112.184 475.471 112.499 474.809C112.817 474.146 113.252 473.638 113.805 473.286C114.358 472.93 114.985 472.752 115.686 472.752C116.228 472.752 116.665 472.843 116.999 473.024C117.332 473.202 117.591 473.411 117.777 473.649C117.966 473.888 118.112 474.098 118.214 474.28H118.339V472.865H120.004V481.786C120.004 482.536 119.83 483.151 119.482 483.632C119.133 484.113 118.661 484.47 118.067 484.701C117.476 484.932 116.809 485.047 116.067 485.047ZM116.05 480.053C116.538 480.053 116.951 479.939 117.288 479.712C117.629 479.481 117.887 479.151 118.061 478.723C118.239 478.292 118.328 477.774 118.328 477.172C118.328 476.585 118.241 476.068 118.067 475.621C117.893 475.174 117.637 474.826 117.3 474.576C116.963 474.322 116.546 474.195 116.05 474.195C115.538 474.195 115.112 474.327 114.771 474.593C114.43 474.854 114.173 475.21 113.999 475.661C113.828 476.112 113.743 476.615 113.743 477.172C113.743 477.744 113.83 478.246 114.004 478.678C114.179 479.11 114.436 479.447 114.777 479.689C115.122 479.932 115.546 480.053 116.05 480.053ZM126.436 472.865V474.229H121.504V472.865H126.436ZM122.857 481.593V471.854C122.857 471.309 122.976 470.856 123.214 470.496C123.453 470.132 123.769 469.862 124.163 469.684C124.557 469.502 124.985 469.411 125.447 469.411C125.788 469.411 126.08 469.439 126.322 469.496C126.565 469.549 126.745 469.598 126.862 469.644L126.464 471.019C126.385 470.996 126.283 470.97 126.158 470.939C126.033 470.905 125.881 470.888 125.703 470.888C125.29 470.888 124.995 470.99 124.817 471.195C124.643 471.399 124.555 471.695 124.555 472.081V481.593H122.857ZM133.717 477.973V472.865H135.422V481.593H133.751V480.081H133.661C133.46 480.547 133.138 480.935 132.695 481.246C132.255 481.553 131.708 481.706 131.053 481.706C130.492 481.706 129.996 481.583 129.564 481.337C129.136 481.087 128.799 480.718 128.553 480.229C128.31 479.74 128.189 479.136 128.189 478.417V472.865H129.888V478.212C129.888 478.807 130.053 479.28 130.382 479.632C130.712 479.985 131.14 480.161 131.666 480.161C131.984 480.161 132.301 480.081 132.615 479.922C132.933 479.763 133.196 479.523 133.405 479.201C133.617 478.879 133.721 478.47 133.717 477.973ZM139.403 469.956V481.593H137.705V469.956H139.403ZM147.622 476.411V481.593H145.923V472.865H147.554V474.286H147.662C147.863 473.824 148.177 473.452 148.605 473.172C149.037 472.892 149.58 472.752 150.236 472.752C150.83 472.752 151.351 472.877 151.798 473.127C152.245 473.373 152.592 473.74 152.838 474.229C153.084 474.718 153.207 475.322 153.207 476.042V481.593H151.509V476.246C151.509 475.613 151.344 475.119 151.014 474.763C150.685 474.403 150.232 474.223 149.656 474.223C149.262 474.223 148.912 474.309 148.605 474.479C148.302 474.649 148.062 474.899 147.884 475.229C147.709 475.555 147.622 475.949 147.622 476.411ZM159.247 481.769C158.387 481.769 157.647 481.585 157.026 481.218C156.408 480.846 155.931 480.326 155.594 479.655C155.26 478.981 155.094 478.191 155.094 477.286C155.094 476.392 155.26 475.604 155.594 474.922C155.931 474.24 156.401 473.708 157.003 473.326C157.609 472.943 158.317 472.752 159.128 472.752C159.62 472.752 160.098 472.833 160.56 472.996C161.022 473.159 161.437 473.415 161.804 473.763C162.171 474.112 162.461 474.564 162.673 475.121C162.885 475.674 162.991 476.346 162.991 477.138V477.74H156.054V476.468H161.327C161.327 476.021 161.236 475.625 161.054 475.28C160.872 474.932 160.616 474.657 160.287 474.456C159.961 474.256 159.579 474.155 159.139 474.155C158.662 474.155 158.245 474.273 157.889 474.507C157.537 474.738 157.264 475.042 157.071 475.417C156.882 475.788 156.787 476.191 156.787 476.627V477.621C156.787 478.204 156.889 478.701 157.094 479.11C157.302 479.519 157.592 479.831 157.963 480.047C158.334 480.259 158.768 480.365 159.264 480.365C159.586 480.365 159.88 480.32 160.145 480.229C160.41 480.134 160.639 479.994 160.832 479.809C161.026 479.623 161.173 479.394 161.276 479.121L162.884 479.411C162.755 479.884 162.524 480.299 162.19 480.655C161.861 481.007 161.446 481.282 160.946 481.479C160.45 481.672 159.884 481.769 159.247 481.769ZM168.95 472.865V474.229H164.183V472.865H168.95ZM165.462 470.774H167.161V479.03C167.161 479.36 167.21 479.608 167.308 479.774C167.407 479.937 167.534 480.049 167.689 480.11C167.848 480.167 168.02 480.195 168.206 480.195C168.342 480.195 168.462 480.185 168.564 480.167C168.666 480.148 168.746 480.132 168.803 480.121L169.109 481.524C169.011 481.562 168.871 481.6 168.689 481.638C168.507 481.68 168.28 481.702 168.007 481.706C167.56 481.714 167.143 481.634 166.757 481.468C166.371 481.301 166.058 481.043 165.82 480.695C165.581 480.346 165.462 479.909 165.462 479.382V470.774ZM172.722 481.593L170.153 472.865H171.909L173.619 479.274H173.705L175.42 472.865H177.176L178.881 479.246H178.966L180.665 472.865H182.42L179.858 481.593H178.125L176.352 475.292H176.222L174.449 481.593H172.722ZM187.443 481.769C186.625 481.769 185.911 481.581 185.301 481.206C184.691 480.831 184.218 480.307 183.881 479.632C183.544 478.958 183.375 478.17 183.375 477.269C183.375 476.363 183.544 475.572 183.881 474.894C184.218 474.216 184.691 473.689 185.301 473.314C185.911 472.939 186.625 472.752 187.443 472.752C188.261 472.752 188.975 472.939 189.585 473.314C190.195 473.689 190.669 474.216 191.006 474.894C191.343 475.572 191.511 476.363 191.511 477.269C191.511 478.17 191.343 478.958 191.006 479.632C190.669 480.307 190.195 480.831 189.585 481.206C188.975 481.581 188.261 481.769 187.443 481.769ZM187.449 480.343C187.979 480.343 188.419 480.202 188.767 479.922C189.116 479.642 189.373 479.269 189.54 478.803C189.71 478.337 189.795 477.824 189.795 477.263C189.795 476.706 189.71 476.195 189.54 475.729C189.373 475.259 189.116 474.882 188.767 474.598C188.419 474.314 187.979 474.172 187.449 474.172C186.915 474.172 186.472 474.314 186.119 474.598C185.771 474.882 185.511 475.259 185.341 475.729C185.174 476.195 185.091 476.706 185.091 477.263C185.091 477.824 185.174 478.337 185.341 478.803C185.511 479.269 185.771 479.642 186.119 479.922C186.472 480.202 186.915 480.343 187.449 480.343ZM193.408 481.593V472.865H195.05V474.252H195.141C195.3 473.782 195.58 473.413 195.982 473.144C196.387 472.871 196.845 472.735 197.357 472.735C197.463 472.735 197.588 472.738 197.732 472.746C197.879 472.754 197.995 472.763 198.078 472.774V474.399C198.01 474.381 197.889 474.36 197.714 474.337C197.54 474.31 197.366 474.297 197.192 474.297C196.79 474.297 196.432 474.382 196.118 474.553C195.807 474.72 195.561 474.952 195.379 475.252C195.197 475.547 195.107 475.884 195.107 476.263V481.593H193.408ZM201.111 478.632L201.099 476.559H201.395L204.872 472.865H206.906L202.94 477.07H202.673L201.111 478.632ZM199.548 481.593V469.956H201.247V481.593H199.548ZM205.06 481.593L201.935 477.445L203.105 476.257L207.145 481.593H205.06ZM214.994 474.996L213.455 475.269C213.39 475.072 213.288 474.884 213.148 474.706C213.011 474.528 212.826 474.382 212.591 474.269C212.356 474.155 212.063 474.098 211.71 474.098C211.229 474.098 210.828 474.206 210.506 474.422C210.184 474.634 210.023 474.909 210.023 475.246C210.023 475.538 210.131 475.773 210.347 475.951C210.563 476.129 210.911 476.274 211.392 476.388L212.778 476.706C213.581 476.892 214.18 477.178 214.574 477.564C214.968 477.951 215.165 478.452 215.165 479.07C215.165 479.593 215.013 480.059 214.71 480.468C214.411 480.873 213.992 481.191 213.455 481.422C212.92 481.653 212.301 481.769 211.597 481.769C210.619 481.769 209.822 481.56 209.205 481.144C208.587 480.723 208.208 480.127 208.068 479.354L209.71 479.104C209.813 479.532 210.023 479.856 210.341 480.076C210.659 480.292 211.074 480.399 211.585 480.399C212.142 480.399 212.587 480.284 212.92 480.053C213.254 479.818 213.42 479.532 213.42 479.195C213.42 478.922 213.318 478.693 213.114 478.507C212.913 478.322 212.604 478.182 212.188 478.087L210.71 477.763C209.896 477.577 209.294 477.282 208.903 476.877C208.517 476.471 208.324 475.958 208.324 475.337C208.324 474.822 208.468 474.371 208.756 473.985C209.044 473.598 209.441 473.297 209.949 473.081C210.456 472.862 211.038 472.752 211.693 472.752C212.636 472.752 213.379 472.956 213.92 473.365C214.462 473.771 214.82 474.314 214.994 474.996ZM223.159 481.593L220.591 472.865H222.347L224.057 479.274H224.142L225.858 472.865H227.614L229.318 479.246H229.403L231.102 472.865H232.858L230.295 481.593H228.562L226.79 475.292H226.659L224.886 481.593H223.159ZM234.47 481.593V472.865H236.169V481.593H234.47ZM235.328 471.519C235.033 471.519 234.779 471.42 234.567 471.223C234.358 471.023 234.254 470.784 234.254 470.507C234.254 470.227 234.358 469.988 234.567 469.792C234.779 469.591 235.033 469.49 235.328 469.49C235.624 469.49 235.875 469.591 236.084 469.792C236.296 469.988 236.402 470.227 236.402 470.507C236.402 470.784 236.296 471.023 236.084 471.223C235.875 471.42 235.624 471.519 235.328 471.519ZM242.528 472.865V474.229H237.761V472.865H242.528ZM239.04 470.774H240.739V479.03C240.739 479.36 240.788 479.608 240.886 479.774C240.985 479.937 241.112 480.049 241.267 480.11C241.426 480.167 241.598 480.195 241.784 480.195C241.92 480.195 242.04 480.185 242.142 480.167C242.244 480.148 242.324 480.132 242.381 480.121L242.688 481.524C242.589 481.562 242.449 481.6 242.267 481.638C242.085 481.68 241.858 481.702 241.585 481.706C241.138 481.714 240.722 481.634 240.335 481.468C239.949 481.301 239.636 481.043 239.398 480.695C239.159 480.346 239.04 479.909 239.04 479.382V470.774ZM246.294 476.411V481.593H244.595V469.956H246.271V474.286H246.379C246.584 473.816 246.896 473.443 247.317 473.167C247.737 472.89 248.286 472.752 248.964 472.752C249.563 472.752 250.086 472.875 250.533 473.121C250.983 473.367 251.332 473.735 251.578 474.223C251.828 474.708 251.953 475.314 251.953 476.042V481.593H250.254V476.246C250.254 475.606 250.089 475.11 249.76 474.757C249.43 474.401 248.972 474.223 248.385 474.223C247.983 474.223 247.624 474.309 247.305 474.479C246.991 474.649 246.743 474.899 246.561 475.229C246.383 475.555 246.294 475.949 246.294 476.411ZM260.153 469.956V481.593H258.455V469.956H260.153ZM262.439 481.593V472.865H264.138V481.593H262.439ZM263.297 471.519C263.001 471.519 262.748 471.42 262.536 471.223C262.327 471.023 262.223 470.784 262.223 470.507C262.223 470.227 262.327 469.988 262.536 469.792C262.748 469.591 263.001 469.49 263.297 469.49C263.592 469.49 263.844 469.591 264.053 469.792C264.265 469.988 264.371 470.227 264.371 470.507C264.371 470.784 264.265 471.023 264.053 471.223C263.844 471.42 263.592 471.519 263.297 471.519ZM267.986 478.632L267.974 476.559H268.27L271.747 472.865H273.781L269.815 477.07H269.548L267.986 478.632ZM266.423 481.593V469.956H268.122V481.593H266.423ZM271.935 481.593L268.81 477.445L269.98 476.257L274.02 481.593H271.935ZM278.732 481.769C277.872 481.769 277.131 481.585 276.51 481.218C275.893 480.846 275.415 480.326 275.078 479.655C274.745 478.981 274.578 478.191 274.578 477.286C274.578 476.392 274.745 475.604 275.078 474.922C275.415 474.24 275.885 473.708 276.487 473.326C277.093 472.943 277.802 472.752 278.612 472.752C279.105 472.752 279.582 472.833 280.044 472.996C280.506 473.159 280.921 473.415 281.288 473.763C281.656 474.112 281.946 474.564 282.158 475.121C282.37 475.674 282.476 476.346 282.476 477.138V477.74H275.538V476.468H280.811C280.811 476.021 280.72 475.625 280.538 475.28C280.357 474.932 280.101 474.657 279.771 474.456C279.446 474.256 279.063 474.155 278.624 474.155C278.146 474.155 277.73 474.273 277.374 474.507C277.021 474.738 276.749 475.042 276.555 475.417C276.366 475.788 276.271 476.191 276.271 476.627V477.621C276.271 478.204 276.374 478.701 276.578 479.11C276.786 479.519 277.076 479.831 277.447 480.047C277.819 480.259 278.252 480.365 278.749 480.365C279.071 480.365 279.364 480.32 279.629 480.229C279.894 480.134 280.124 479.994 280.317 479.809C280.51 479.623 280.658 479.394 280.76 479.121L282.368 479.411C282.239 479.884 282.008 480.299 281.675 480.655C281.345 481.007 280.93 481.282 280.43 481.479C279.934 481.672 279.368 481.769 278.732 481.769ZM289.503 475.939V477.411H284.344V475.939H289.503ZM291.767 481.593V472.865H293.398V474.286H293.506C293.688 473.805 293.985 473.43 294.398 473.161C294.811 472.888 295.305 472.752 295.881 472.752C296.464 472.752 296.953 472.888 297.347 473.161C297.744 473.434 298.038 473.809 298.227 474.286H298.318C298.527 473.82 298.858 473.449 299.312 473.172C299.767 472.892 300.309 472.752 300.938 472.752C301.729 472.752 302.375 473 302.875 473.496C303.379 473.992 303.631 474.74 303.631 475.74V481.593H301.932V475.899C301.932 475.309 301.771 474.881 301.449 474.615C301.127 474.35 300.742 474.218 300.295 474.218C299.742 474.218 299.312 474.388 299.006 474.729C298.699 475.066 298.545 475.5 298.545 476.03V481.593H296.852V475.792C296.852 475.318 296.705 474.937 296.409 474.649C296.114 474.362 295.729 474.218 295.256 474.218C294.934 474.218 294.636 474.303 294.364 474.473C294.095 474.64 293.877 474.873 293.71 475.172C293.547 475.471 293.466 475.818 293.466 476.212V481.593H291.767ZM305.908 481.593V472.865H307.607V481.593H305.908ZM306.766 471.519C306.47 471.519 306.216 471.42 306.004 471.223C305.796 471.023 305.692 470.784 305.692 470.507C305.692 470.227 305.796 469.988 306.004 469.792C306.216 469.591 306.47 469.49 306.766 469.49C307.061 469.49 307.313 469.591 307.521 469.792C307.733 469.988 307.839 470.227 307.839 470.507C307.839 470.784 307.733 471.023 307.521 471.223C307.313 471.42 307.061 471.519 306.766 471.519ZM311.591 476.411V481.593H309.892V472.865H311.523V474.286H311.631C311.831 473.824 312.146 473.452 312.574 473.172C313.006 472.892 313.549 472.752 314.205 472.752C314.799 472.752 315.32 472.877 315.767 473.127C316.214 473.373 316.561 473.74 316.807 474.229C317.053 474.718 317.176 475.322 317.176 476.042V481.593H315.477V476.246C315.477 475.613 315.313 475.119 314.983 474.763C314.653 474.403 314.201 474.223 313.625 474.223C313.231 474.223 312.881 474.309 312.574 474.479C312.271 474.649 312.03 474.899 311.852 475.229C311.678 475.555 311.591 475.949 311.591 476.411ZM322.722 481.763C322.017 481.763 321.388 481.583 320.835 481.223C320.286 480.86 319.854 480.343 319.54 479.672C319.229 478.998 319.074 478.189 319.074 477.246C319.074 476.303 319.231 475.496 319.545 474.826C319.864 474.155 320.299 473.642 320.852 473.286C321.405 472.93 322.032 472.752 322.733 472.752C323.275 472.752 323.71 472.843 324.04 473.024C324.373 473.202 324.631 473.411 324.812 473.649C324.998 473.888 325.142 474.098 325.244 474.28H325.347V469.956H327.045V481.593H325.386V480.235H325.244C325.142 480.42 324.994 480.632 324.801 480.871C324.612 481.11 324.35 481.318 324.017 481.496C323.684 481.674 323.252 481.763 322.722 481.763ZM323.097 480.314C323.585 480.314 323.998 480.185 324.335 479.928C324.676 479.667 324.934 479.305 325.108 478.843C325.286 478.381 325.375 477.843 325.375 477.229C325.375 476.623 325.288 476.093 325.114 475.638C324.939 475.184 324.684 474.829 324.347 474.576C324.009 474.322 323.593 474.195 323.097 474.195C322.585 474.195 322.159 474.327 321.818 474.593C321.477 474.858 321.22 475.22 321.045 475.678C320.875 476.136 320.79 476.653 320.79 477.229C320.79 477.812 320.877 478.337 321.051 478.803C321.225 479.269 321.483 479.638 321.824 479.911C322.169 480.18 322.593 480.314 323.097 480.314ZM333.232 481.769C332.372 481.769 331.631 481.585 331.01 481.218C330.393 480.846 329.915 480.326 329.578 479.655C329.245 478.981 329.078 478.191 329.078 477.286C329.078 476.392 329.245 475.604 329.578 474.922C329.915 474.24 330.385 473.708 330.987 473.326C331.593 472.943 332.302 472.752 333.112 472.752C333.605 472.752 334.082 472.833 334.544 472.996C335.006 473.159 335.421 473.415 335.788 473.763C336.156 474.112 336.446 474.564 336.658 475.121C336.87 475.674 336.976 476.346 336.976 477.138V477.74H330.038V476.468H335.311C335.311 476.021 335.22 475.625 335.038 475.28C334.857 474.932 334.601 474.657 334.271 474.456C333.946 474.256 333.563 474.155 333.124 474.155C332.646 474.155 332.23 474.273 331.874 474.507C331.521 474.738 331.249 475.042 331.055 475.417C330.866 475.788 330.771 476.191 330.771 476.627V477.621C330.771 478.204 330.874 478.701 331.078 479.11C331.286 479.519 331.576 479.831 331.947 480.047C332.319 480.259 332.752 480.365 333.249 480.365C333.571 480.365 333.864 480.32 334.129 480.229C334.394 480.134 334.624 479.994 334.817 479.809C335.01 479.623 335.158 479.394 335.26 479.121L336.868 479.411C336.739 479.884 336.508 480.299 336.175 480.655C335.845 481.007 335.43 481.282 334.93 481.479C334.434 481.672 333.868 481.769 333.232 481.769ZM342.128 481.763C341.423 481.763 340.795 481.583 340.241 481.223C339.692 480.86 339.26 480.343 338.946 479.672C338.635 478.998 338.48 478.189 338.48 477.246C338.48 476.303 338.637 475.496 338.952 474.826C339.27 474.155 339.705 473.642 340.259 473.286C340.812 472.93 341.438 472.752 342.139 472.752C342.681 472.752 343.116 472.843 343.446 473.024C343.779 473.202 344.037 473.411 344.219 473.649C344.404 473.888 344.548 474.098 344.651 474.28H344.753V469.956H346.452V481.593H344.793V480.235H344.651C344.548 480.42 344.401 480.632 344.207 480.871C344.018 481.11 343.757 481.318 343.423 481.496C343.09 481.674 342.658 481.763 342.128 481.763ZM342.503 480.314C342.991 480.314 343.404 480.185 343.741 479.928C344.082 479.667 344.34 479.305 344.514 478.843C344.692 478.381 344.781 477.843 344.781 477.229C344.781 476.623 344.694 476.093 344.52 475.638C344.346 475.184 344.09 474.829 343.753 474.576C343.416 474.322 342.999 474.195 342.503 474.195C341.991 474.195 341.565 474.327 341.224 474.593C340.884 474.858 340.626 475.22 340.452 475.678C340.281 476.136 340.196 476.653 340.196 477.229C340.196 477.812 340.283 478.337 340.457 478.803C340.632 479.269 340.889 479.638 341.23 479.911C341.575 480.18 341.999 480.314 342.503 480.314ZM359.651 474.996L358.111 475.269C358.046 475.072 357.944 474.884 357.804 474.706C357.668 474.528 357.482 474.382 357.247 474.269C357.012 474.155 356.719 474.098 356.366 474.098C355.885 474.098 355.484 474.206 355.162 474.422C354.84 474.634 354.679 474.909 354.679 475.246C354.679 475.538 354.787 475.773 355.003 475.951C355.219 476.129 355.567 476.274 356.048 476.388L357.435 476.706C358.238 476.892 358.836 477.178 359.23 477.564C359.624 477.951 359.821 478.452 359.821 479.07C359.821 479.593 359.67 480.059 359.366 480.468C359.067 480.873 358.649 481.191 358.111 481.422C357.577 481.653 356.957 481.769 356.253 481.769C355.276 481.769 354.478 481.56 353.861 481.144C353.243 480.723 352.865 480.127 352.724 479.354L354.366 479.104C354.469 479.532 354.679 479.856 354.997 480.076C355.315 480.292 355.73 480.399 356.241 480.399C356.798 480.399 357.243 480.284 357.577 480.053C357.91 479.818 358.077 479.532 358.077 479.195C358.077 478.922 357.974 478.693 357.77 478.507C357.569 478.322 357.26 478.182 356.844 478.087L355.366 477.763C354.552 477.577 353.95 477.282 353.56 476.877C353.173 476.471 352.98 475.958 352.98 475.337C352.98 474.822 353.124 474.371 353.412 473.985C353.7 473.598 354.098 473.297 354.605 473.081C355.113 472.862 355.694 472.752 356.349 472.752C357.293 472.752 358.035 472.956 358.577 473.365C359.118 473.771 359.476 474.314 359.651 474.996ZM365.763 472.865V474.229H360.996V472.865H365.763ZM362.274 470.774H363.973V479.03C363.973 479.36 364.022 479.608 364.121 479.774C364.219 479.937 364.346 480.049 364.501 480.11C364.661 480.167 364.833 480.195 365.018 480.195C365.155 480.195 365.274 480.185 365.376 480.167C365.479 480.148 365.558 480.132 365.615 480.121L365.922 481.524C365.823 481.562 365.683 481.6 365.501 481.638C365.32 481.68 365.092 481.702 364.82 481.706C364.373 481.714 363.956 481.634 363.57 481.468C363.183 481.301 362.871 481.043 362.632 480.695C362.393 480.346 362.274 479.909 362.274 479.382V470.774ZM373.17 477.973V472.865H374.875V481.593H373.205V480.081H373.114C372.913 480.547 372.591 480.935 372.148 481.246C371.708 481.553 371.161 481.706 370.506 481.706C369.945 481.706 369.449 481.583 369.017 481.337C368.589 481.087 368.252 480.718 368.006 480.229C367.763 479.74 367.642 479.136 367.642 478.417V472.865H369.341V478.212C369.341 478.807 369.506 479.28 369.835 479.632C370.165 479.985 370.593 480.161 371.119 480.161C371.438 480.161 371.754 480.081 372.068 479.922C372.386 479.763 372.65 479.523 372.858 479.201C373.07 478.879 373.174 478.47 373.17 477.973ZM380.425 481.763C379.72 481.763 379.091 481.583 378.538 481.223C377.989 480.86 377.557 480.343 377.243 479.672C376.932 478.998 376.777 478.189 376.777 477.246C376.777 476.303 376.934 475.496 377.249 474.826C377.567 474.155 378.002 473.642 378.555 473.286C379.108 472.93 379.735 472.752 380.436 472.752C380.978 472.752 381.413 472.843 381.743 473.024C382.076 473.202 382.334 473.411 382.516 473.649C382.701 473.888 382.845 474.098 382.947 474.28H383.05V469.956H384.749V481.593H383.089V480.235H382.947C382.845 480.42 382.697 480.632 382.504 480.871C382.315 481.11 382.054 481.318 381.72 481.496C381.387 481.674 380.955 481.763 380.425 481.763ZM380.8 480.314C381.288 480.314 381.701 480.185 382.038 479.928C382.379 479.667 382.637 479.305 382.811 478.843C382.989 478.381 383.078 477.843 383.078 477.229C383.078 476.623 382.991 476.093 382.817 475.638C382.643 475.184 382.387 474.829 382.05 474.576C381.713 474.322 381.296 474.195 380.8 474.195C380.288 474.195 379.862 474.327 379.521 474.593C379.18 474.858 378.923 475.22 378.749 475.678C378.578 476.136 378.493 476.653 378.493 477.229C378.493 477.812 378.58 478.337 378.754 478.803C378.929 479.269 379.186 479.638 379.527 479.911C379.872 480.18 380.296 480.314 380.8 480.314ZM390.935 481.769C390.075 481.769 389.334 481.585 388.713 481.218C388.096 480.846 387.618 480.326 387.281 479.655C386.948 478.981 386.781 478.191 386.781 477.286C386.781 476.392 386.948 475.604 387.281 474.922C387.618 474.24 388.088 473.708 388.69 473.326C389.296 472.943 390.005 472.752 390.815 472.752C391.308 472.752 391.785 472.833 392.247 472.996C392.709 473.159 393.124 473.415 393.491 473.763C393.859 474.112 394.149 474.564 394.361 475.121C394.573 475.674 394.679 476.346 394.679 477.138V477.74H387.741V476.468H393.014C393.014 476.021 392.923 475.625 392.741 475.28C392.56 474.932 392.304 474.657 391.974 474.456C391.649 474.256 391.266 474.155 390.827 474.155C390.349 474.155 389.933 474.273 389.577 474.507C389.224 474.738 388.952 475.042 388.759 475.417C388.569 475.788 388.474 476.191 388.474 476.627V477.621C388.474 478.204 388.577 478.701 388.781 479.11C388.99 479.519 389.279 479.831 389.651 480.047C390.022 480.259 390.455 480.365 390.952 480.365C391.274 480.365 391.567 480.32 391.832 480.229C392.098 480.134 392.327 479.994 392.52 479.809C392.713 479.623 392.861 479.394 392.963 479.121L394.571 479.411C394.442 479.884 394.211 480.299 393.878 480.655C393.548 481.007 393.134 481.282 392.634 481.479C392.137 481.672 391.571 481.769 390.935 481.769ZM398.263 476.411V481.593H396.564V472.865H398.195V474.286H398.303C398.503 473.824 398.818 473.452 399.246 473.172C399.678 472.892 400.221 472.752 400.876 472.752C401.471 472.752 401.992 472.877 402.439 473.127C402.886 473.373 403.232 473.74 403.479 474.229C403.725 474.718 403.848 475.322 403.848 476.042V481.593H402.149V476.246C402.149 475.613 401.984 475.119 401.655 474.763C401.325 474.403 400.873 474.223 400.297 474.223C399.903 474.223 399.553 474.309 399.246 474.479C398.943 474.649 398.702 474.899 398.524 475.229C398.35 475.555 398.263 475.949 398.263 476.411ZM410.2 472.865V474.229H405.433V472.865H410.2ZM406.712 470.774H408.411V479.03C408.411 479.36 408.46 479.608 408.558 479.774C408.657 479.937 408.784 480.049 408.939 480.11C409.098 480.167 409.27 480.195 409.456 480.195C409.592 480.195 409.712 480.185 409.814 480.167C409.916 480.148 409.996 480.132 410.053 480.121L410.359 481.524C410.261 481.562 410.121 481.6 409.939 481.638C409.757 481.68 409.53 481.702 409.257 481.706C408.81 481.714 408.393 481.634 408.007 481.468C407.621 481.301 407.308 481.043 407.07 480.695C406.831 480.346 406.712 479.909 406.712 479.382V470.774ZM418.479 474.996L416.939 475.269C416.875 475.072 416.772 474.884 416.632 474.706C416.496 474.528 416.31 474.382 416.075 474.269C415.84 474.155 415.547 474.098 415.195 474.098C414.714 474.098 414.312 474.206 413.99 474.422C413.668 474.634 413.507 474.909 413.507 475.246C413.507 475.538 413.615 475.773 413.831 475.951C414.047 476.129 414.395 476.274 414.876 476.388L416.263 476.706C417.066 476.892 417.664 477.178 418.058 477.564C418.452 477.951 418.649 478.452 418.649 479.07C418.649 479.593 418.498 480.059 418.195 480.468C417.895 480.873 417.477 481.191 416.939 481.422C416.405 481.653 415.786 481.769 415.081 481.769C414.104 481.769 413.306 481.56 412.689 481.144C412.071 480.723 411.693 480.127 411.553 479.354L413.195 479.104C413.297 479.532 413.507 479.856 413.825 480.076C414.143 480.292 414.558 480.399 415.07 480.399C415.626 480.399 416.071 480.284 416.405 480.053C416.738 479.818 416.905 479.532 416.905 479.195C416.905 478.922 416.803 478.693 416.598 478.507C416.397 478.322 416.089 478.182 415.672 478.087L414.195 477.763C413.38 477.577 412.778 477.282 412.388 476.877C412.001 476.471 411.808 475.958 411.808 475.337C411.808 474.822 411.952 474.371 412.24 473.985C412.528 473.598 412.926 473.297 413.433 473.081C413.941 472.862 414.522 472.752 415.178 472.752C416.121 472.752 416.863 472.956 417.405 473.365C417.946 473.771 418.304 474.314 418.479 474.996ZM422.727 480.002L422.642 480.621C422.585 481.076 422.489 481.549 422.352 482.042C422.22 482.538 422.081 482.998 421.938 483.422C421.797 483.846 421.682 484.184 421.591 484.434H420.386C420.436 484.199 420.504 483.881 420.591 483.479C420.678 483.081 420.763 482.636 420.847 482.144C420.93 481.651 420.992 481.149 421.034 480.638L421.091 480.002H422.727ZM429.173 481.593V472.865H430.804V474.286H430.912C431.094 473.805 431.391 473.43 431.804 473.161C432.217 472.888 432.711 472.752 433.287 472.752C433.87 472.752 434.359 472.888 434.753 473.161C435.151 473.434 435.444 473.809 435.634 474.286H435.724C435.933 473.82 436.264 473.449 436.719 473.172C437.173 472.892 437.715 472.752 438.344 472.752C439.135 472.752 439.781 473 440.281 473.496C440.785 473.992 441.037 474.74 441.037 475.74V481.593H439.338V475.899C439.338 475.309 439.177 474.881 438.855 474.615C438.533 474.35 438.149 474.218 437.702 474.218C437.149 474.218 436.719 474.388 436.412 474.729C436.105 475.066 435.952 475.5 435.952 476.03V481.593H434.259V475.792C434.259 475.318 434.111 474.937 433.815 474.649C433.52 474.362 433.135 474.218 432.662 474.218C432.34 474.218 432.043 474.303 431.77 474.473C431.501 474.64 431.283 474.873 431.116 475.172C430.954 475.471 430.872 475.818 430.872 476.212V481.593H429.173ZM447.075 481.769C446.215 481.769 445.475 481.585 444.854 481.218C444.236 480.846 443.759 480.326 443.422 479.655C443.089 478.981 442.922 478.191 442.922 477.286C442.922 476.392 443.089 475.604 443.422 474.922C443.759 474.24 444.229 473.708 444.831 473.326C445.437 472.943 446.145 472.752 446.956 472.752C447.448 472.752 447.926 472.833 448.388 472.996C448.85 473.159 449.265 473.415 449.632 473.763C450 474.112 450.289 474.564 450.501 475.121C450.714 475.674 450.82 476.346 450.82 477.138V477.74H443.882V476.468H449.155C449.155 476.021 449.064 475.625 448.882 475.28C448.7 474.932 448.445 474.657 448.115 474.456C447.789 474.256 447.407 474.155 446.967 474.155C446.49 474.155 446.073 474.273 445.717 474.507C445.365 474.738 445.092 475.042 444.899 475.417C444.71 475.788 444.615 476.191 444.615 476.627V477.621C444.615 478.204 444.717 478.701 444.922 479.11C445.13 479.519 445.42 479.831 445.791 480.047C446.162 480.259 446.596 480.365 447.092 480.365C447.414 480.365 447.708 480.32 447.973 480.229C448.238 480.134 448.467 479.994 448.661 479.809C448.854 479.623 449.001 479.394 449.104 479.121L450.712 479.411C450.583 479.884 450.352 480.299 450.018 480.655C449.689 481.007 449.274 481.282 448.774 481.479C448.278 481.672 447.712 481.769 447.075 481.769ZM454.403 476.411V481.593H452.705V472.865H454.335V474.286H454.443C454.644 473.824 454.958 473.452 455.386 473.172C455.818 472.892 456.362 472.752 457.017 472.752C457.612 472.752 458.133 472.877 458.58 473.127C459.027 473.373 459.373 473.74 459.619 474.229C459.866 474.718 459.989 475.322 459.989 476.042V481.593H458.29V476.246C458.29 475.613 458.125 475.119 457.795 474.763C457.466 474.403 457.013 474.223 456.438 474.223C456.044 474.223 455.693 474.309 455.386 474.479C455.083 474.649 454.843 474.899 454.665 475.229C454.491 475.555 454.403 475.949 454.403 476.411ZM466.341 472.865V474.229H461.574V472.865H466.341ZM462.852 470.774H464.551V479.03C464.551 479.36 464.6 479.608 464.699 479.774C464.797 479.937 464.924 480.049 465.08 480.11C465.239 480.167 465.411 480.195 465.597 480.195C465.733 480.195 465.852 480.185 465.955 480.167C466.057 480.148 466.136 480.132 466.193 480.121L466.5 481.524C466.402 481.562 466.261 481.6 466.08 481.638C465.898 481.68 465.67 481.702 465.398 481.706C464.951 481.714 464.534 481.634 464.148 481.468C463.761 481.301 463.449 481.043 463.21 480.695C462.972 480.346 462.852 479.909 462.852 479.382V470.774ZM471.803 481.769C470.984 481.769 470.27 481.581 469.661 481.206C469.051 480.831 468.577 480.307 468.24 479.632C467.903 478.958 467.734 478.17 467.734 477.269C467.734 476.363 467.903 475.572 468.24 474.894C468.577 474.216 469.051 473.689 469.661 473.314C470.27 472.939 470.984 472.752 471.803 472.752C472.621 472.752 473.335 472.939 473.945 473.314C474.554 473.689 475.028 474.216 475.365 474.894C475.702 475.572 475.871 476.363 475.871 477.269C475.871 478.17 475.702 478.958 475.365 479.632C475.028 480.307 474.554 480.831 473.945 481.206C473.335 481.581 472.621 481.769 471.803 481.769ZM471.808 480.343C472.339 480.343 472.778 480.202 473.126 479.922C473.475 479.642 473.732 479.269 473.899 478.803C474.07 478.337 474.155 477.824 474.155 477.263C474.155 476.706 474.07 476.195 473.899 475.729C473.732 475.259 473.475 474.882 473.126 474.598C472.778 474.314 472.339 474.172 471.808 474.172C471.274 474.172 470.831 474.314 470.479 474.598C470.13 474.882 469.871 475.259 469.7 475.729C469.534 476.195 469.45 476.706 469.45 477.263C469.45 477.824 469.534 478.337 469.7 478.803C469.871 479.269 470.13 479.642 470.479 479.922C470.831 480.202 471.274 480.343 471.808 480.343ZM477.767 481.593V472.865H479.409V474.252H479.5C479.659 473.782 479.939 473.413 480.341 473.144C480.746 472.871 481.205 472.735 481.716 472.735C481.822 472.735 481.947 472.738 482.091 472.746C482.239 472.754 482.354 472.763 482.438 472.774V474.399C482.369 474.381 482.248 474.36 482.074 474.337C481.9 474.31 481.725 474.297 481.551 474.297C481.15 474.297 480.792 474.382 480.477 474.553C480.167 474.72 479.92 474.952 479.739 475.252C479.557 475.547 479.466 475.884 479.466 476.263V481.593H477.767ZM490.447 474.996L488.908 475.269C488.843 475.072 488.741 474.884 488.601 474.706C488.464 474.528 488.279 474.382 488.044 474.269C487.809 474.155 487.516 474.098 487.163 474.098C486.682 474.098 486.281 474.206 485.959 474.422C485.637 474.634 485.476 474.909 485.476 475.246C485.476 475.538 485.584 475.773 485.8 475.951C486.016 476.129 486.364 476.274 486.845 476.388L488.232 476.706C489.035 476.892 489.633 477.178 490.027 477.564C490.421 477.951 490.618 478.452 490.618 479.07C490.618 479.593 490.466 480.059 490.163 480.468C489.864 480.873 489.446 481.191 488.908 481.422C488.374 481.653 487.754 481.769 487.05 481.769C486.072 481.769 485.275 481.56 484.658 481.144C484.04 480.723 483.661 480.127 483.521 479.354L485.163 479.104C485.266 479.532 485.476 479.856 485.794 480.076C486.112 480.292 486.527 480.399 487.038 480.399C487.595 480.399 488.04 480.284 488.374 480.053C488.707 479.818 488.874 479.532 488.874 479.195C488.874 478.922 488.771 478.693 488.567 478.507C488.366 478.322 488.057 478.182 487.641 478.087L486.163 477.763C485.349 477.577 484.747 477.282 484.357 476.877C483.97 476.471 483.777 475.958 483.777 475.337C483.777 474.822 483.921 474.371 484.209 473.985C484.497 473.598 484.894 473.297 485.402 473.081C485.91 472.862 486.491 472.752 487.146 472.752C488.089 472.752 488.832 472.956 489.374 473.365C489.915 473.771 490.273 474.314 490.447 474.996ZM494.696 480.002L494.611 480.621C494.554 481.076 494.457 481.549 494.321 482.042C494.188 482.538 494.05 482.998 493.906 483.422C493.766 483.846 493.651 484.184 493.56 484.434H492.355C492.404 484.199 492.473 483.881 492.56 483.479C492.647 483.081 492.732 482.636 492.815 482.144C492.899 481.651 492.961 481.149 493.003 480.638L493.06 480.002H494.696ZM503.682 481.786C503.129 481.786 502.629 481.684 502.182 481.479C501.735 481.271 501.381 480.97 501.119 480.576C500.862 480.182 500.733 479.699 500.733 479.127C500.733 478.634 500.828 478.229 501.017 477.911C501.206 477.593 501.462 477.341 501.784 477.155C502.106 476.97 502.466 476.829 502.864 476.735C503.261 476.64 503.667 476.568 504.08 476.519C504.602 476.458 505.027 476.409 505.352 476.371C505.678 476.329 505.915 476.263 506.062 476.172C506.21 476.081 506.284 475.934 506.284 475.729V475.689C506.284 475.193 506.144 474.809 505.864 474.536C505.587 474.263 505.174 474.127 504.625 474.127C504.053 474.127 503.602 474.254 503.273 474.507C502.947 474.757 502.722 475.036 502.597 475.343L501 474.979C501.189 474.449 501.466 474.021 501.83 473.695C502.197 473.365 502.619 473.127 503.097 472.979C503.574 472.827 504.076 472.752 504.602 472.752C504.951 472.752 505.32 472.793 505.71 472.877C506.104 472.956 506.472 473.104 506.812 473.32C507.157 473.536 507.439 473.845 507.659 474.246C507.879 474.644 507.989 475.161 507.989 475.797V481.593H506.33V480.399H506.261C506.152 480.619 505.987 480.835 505.767 481.047C505.547 481.259 505.265 481.435 504.92 481.576C504.576 481.716 504.163 481.786 503.682 481.786ZM504.051 480.422C504.521 480.422 504.922 480.329 505.256 480.144C505.593 479.958 505.848 479.716 506.023 479.417C506.201 479.113 506.29 478.79 506.29 478.445V477.32C506.229 477.381 506.112 477.437 505.938 477.49C505.767 477.54 505.572 477.583 505.352 477.621C505.133 477.655 504.919 477.687 504.71 477.718C504.502 477.744 504.328 477.767 504.188 477.786C503.858 477.827 503.557 477.898 503.284 477.996C503.015 478.095 502.799 478.237 502.636 478.422C502.477 478.604 502.398 478.846 502.398 479.149C502.398 479.57 502.553 479.888 502.864 480.104C503.174 480.316 503.57 480.422 504.051 480.422ZM511.95 476.411V481.593H510.251V472.865H511.882V474.286H511.99C512.191 473.824 512.505 473.452 512.933 473.172C513.365 472.892 513.909 472.752 514.564 472.752C515.159 472.752 515.679 472.877 516.126 473.127C516.573 473.373 516.92 473.74 517.166 474.229C517.412 474.718 517.536 475.322 517.536 476.042V481.593H515.837V476.246C515.837 475.613 515.672 475.119 515.342 474.763C515.013 474.403 514.56 474.223 513.984 474.223C513.59 474.223 513.24 474.309 512.933 474.479C512.63 474.649 512.39 474.899 512.212 475.229C512.037 475.555 511.95 475.949 511.95 476.411ZM523.081 481.763C522.376 481.763 521.748 481.583 521.195 481.223C520.645 480.86 520.214 480.343 519.899 479.672C519.589 478.998 519.433 478.189 519.433 477.246C519.433 476.303 519.59 475.496 519.905 474.826C520.223 474.155 520.659 473.642 521.212 473.286C521.765 472.93 522.392 472.752 523.092 472.752C523.634 472.752 524.07 472.843 524.399 473.024C524.732 473.202 524.99 473.411 525.172 473.649C525.357 473.888 525.501 474.098 525.604 474.28H525.706V469.956H527.405V481.593H525.746V480.235H525.604C525.501 480.42 525.354 480.632 525.161 480.871C524.971 481.11 524.71 481.318 524.376 481.496C524.043 481.674 523.611 481.763 523.081 481.763ZM523.456 480.314C523.945 480.314 524.357 480.185 524.695 479.928C525.036 479.667 525.293 479.305 525.467 478.843C525.645 478.381 525.734 477.843 525.734 477.229C525.734 476.623 525.647 476.093 525.473 475.638C525.299 475.184 525.043 474.829 524.706 474.576C524.369 474.322 523.952 474.195 523.456 474.195C522.945 474.195 522.518 474.327 522.178 474.593C521.837 474.858 521.579 475.22 521.405 475.678C521.234 476.136 521.149 476.653 521.149 477.229C521.149 477.812 521.236 478.337 521.411 478.803C521.585 479.269 521.842 479.638 522.183 479.911C522.528 480.18 522.952 480.314 523.456 480.314ZM232.923 500.593V491.865H234.565V493.252H234.656C234.815 492.782 235.096 492.413 235.497 492.144C235.902 491.871 236.361 491.735 236.872 491.735C236.978 491.735 237.103 491.738 237.247 491.746C237.395 491.754 237.51 491.763 237.594 491.774V493.399C237.526 493.381 237.404 493.36 237.23 493.337C237.056 493.31 236.882 493.297 236.707 493.297C236.306 493.297 235.948 493.382 235.634 493.553C235.323 493.72 235.077 493.952 234.895 494.252C234.713 494.547 234.622 494.884 234.622 495.263V500.593H232.923ZM242.513 500.769C241.653 500.769 240.912 500.585 240.291 500.218C239.674 499.846 239.196 499.326 238.859 498.655C238.526 497.981 238.359 497.191 238.359 496.286C238.359 495.392 238.526 494.604 238.859 493.922C239.196 493.24 239.666 492.708 240.268 492.326C240.875 491.943 241.583 491.752 242.393 491.752C242.886 491.752 243.363 491.833 243.825 491.996C244.287 492.159 244.702 492.415 245.07 492.763C245.437 493.112 245.727 493.564 245.939 494.121C246.151 494.674 246.257 495.346 246.257 496.138V496.74H239.32V495.468H244.592C244.592 495.021 244.501 494.625 244.32 494.28C244.138 493.932 243.882 493.657 243.553 493.456C243.227 493.256 242.844 493.155 242.405 493.155C241.928 493.155 241.511 493.273 241.155 493.507C240.803 493.738 240.53 494.042 240.337 494.417C240.147 494.788 240.053 495.191 240.053 495.627V496.621C240.053 497.204 240.155 497.701 240.359 498.11C240.568 498.519 240.857 498.831 241.229 499.047C241.6 499.259 242.034 499.365 242.53 499.365C242.852 499.365 243.145 499.32 243.411 499.229C243.676 499.134 243.905 498.994 244.098 498.809C244.291 498.623 244.439 498.394 244.541 498.121L246.149 498.411C246.02 498.884 245.789 499.299 245.456 499.655C245.126 500.007 244.712 500.282 244.212 500.479C243.715 500.672 243.149 500.769 242.513 500.769ZM251.818 500.769C250.973 500.769 250.246 500.577 249.636 500.195C249.03 499.809 248.564 499.276 248.239 498.598C247.913 497.92 247.75 497.144 247.75 496.269C247.75 495.382 247.917 494.6 248.25 493.922C248.583 493.24 249.053 492.708 249.659 492.326C250.265 491.943 250.979 491.752 251.801 491.752C252.464 491.752 253.055 491.875 253.574 492.121C254.093 492.363 254.511 492.704 254.83 493.144C255.152 493.583 255.343 494.096 255.403 494.684H253.75C253.659 494.274 253.451 493.922 253.125 493.627C252.803 493.331 252.371 493.184 251.83 493.184C251.356 493.184 250.941 493.309 250.585 493.559C250.233 493.805 249.958 494.157 249.761 494.615C249.564 495.07 249.466 495.608 249.466 496.229C249.466 496.865 249.563 497.415 249.756 497.877C249.949 498.339 250.222 498.697 250.574 498.951C250.93 499.204 251.348 499.331 251.83 499.331C252.152 499.331 252.443 499.273 252.705 499.155C252.97 499.034 253.191 498.862 253.369 498.638C253.551 498.415 253.678 498.146 253.75 497.831H255.403C255.343 498.396 255.159 498.899 254.852 499.343C254.545 499.786 254.134 500.134 253.619 500.388C253.108 500.642 252.508 500.769 251.818 500.769ZM257.22 500.593V491.865H258.862V493.252H258.953C259.112 492.782 259.393 492.413 259.794 492.144C260.199 491.871 260.658 491.735 261.169 491.735C261.275 491.735 261.4 491.738 261.544 491.746C261.692 491.754 261.807 491.763 261.891 491.774V493.399C261.822 493.381 261.701 493.36 261.527 493.337C261.353 493.31 261.179 493.297 261.004 493.297C260.603 493.297 260.245 493.382 259.93 493.553C259.62 493.72 259.374 493.952 259.192 494.252C259.01 494.547 258.919 494.884 258.919 495.263V500.593H257.22ZM268.889 496.973V491.865H270.594V500.593H268.923V499.081H268.832C268.632 499.547 268.31 499.935 267.866 500.246C267.427 500.553 266.88 500.706 266.224 500.706C265.664 500.706 265.168 500.583 264.736 500.337C264.308 500.087 263.971 499.718 263.724 499.229C263.482 498.74 263.361 498.136 263.361 497.417V491.865H265.06V497.212C265.06 497.807 265.224 498.28 265.554 498.632C265.884 498.985 266.312 499.161 266.838 499.161C267.156 499.161 267.473 499.081 267.787 498.922C268.105 498.763 268.368 498.523 268.577 498.201C268.789 497.879 268.893 497.47 268.889 496.973ZM272.876 500.593V491.865H274.575V500.593H272.876ZM273.734 490.519C273.439 490.519 273.185 490.42 272.973 490.223C272.765 490.023 272.661 489.784 272.661 489.507C272.661 489.227 272.765 488.988 272.973 488.792C273.185 488.591 273.439 488.49 273.734 488.49C274.03 488.49 274.282 488.591 274.49 488.792C274.702 488.988 274.808 489.227 274.808 489.507C274.808 489.784 274.702 490.023 274.49 490.223C274.282 490.42 274.03 490.519 273.734 490.519ZM280.935 491.865V493.229H276.168V491.865H280.935ZM277.446 489.774H279.145V498.03C279.145 498.36 279.194 498.608 279.293 498.774C279.391 498.937 279.518 499.049 279.673 499.11C279.832 499.167 280.005 499.195 280.19 499.195C280.327 499.195 280.446 499.185 280.548 499.167C280.651 499.148 280.73 499.132 280.787 499.121L281.094 500.524C280.995 500.562 280.855 500.6 280.673 500.638C280.491 500.68 280.264 500.702 279.991 500.706C279.545 500.714 279.128 500.634 278.741 500.468C278.355 500.301 278.043 500.043 277.804 499.695C277.565 499.346 277.446 498.909 277.446 498.382V489.774ZM286.482 500.769C285.622 500.769 284.881 500.585 284.26 500.218C283.643 499.846 283.165 499.326 282.828 498.655C282.495 497.981 282.328 497.191 282.328 496.286C282.328 495.392 282.495 494.604 282.828 493.922C283.165 493.24 283.635 492.708 284.237 492.326C284.843 491.943 285.552 491.752 286.362 491.752C286.855 491.752 287.332 491.833 287.794 491.996C288.256 492.159 288.671 492.415 289.038 492.763C289.406 493.112 289.696 493.564 289.908 494.121C290.12 494.674 290.226 495.346 290.226 496.138V496.74H283.288V495.468H288.561C288.561 495.021 288.47 494.625 288.288 494.28C288.107 493.932 287.851 493.657 287.521 493.456C287.196 493.256 286.813 493.155 286.374 493.155C285.896 493.155 285.48 493.273 285.124 493.507C284.771 493.738 284.499 494.042 284.305 494.417C284.116 494.788 284.021 495.191 284.021 495.627V496.621C284.021 497.204 284.124 497.701 284.328 498.11C284.536 498.519 284.826 498.831 285.197 499.047C285.569 499.259 286.002 499.365 286.499 499.365C286.821 499.365 287.114 499.32 287.379 499.229C287.644 499.134 287.874 498.994 288.067 498.809C288.26 498.623 288.408 498.394 288.51 498.121L290.118 498.411C289.989 498.884 289.758 499.299 289.425 499.655C289.095 500.007 288.68 500.282 288.18 500.479C287.684 500.672 287.118 500.769 286.482 500.769ZM292.111 500.593V491.865H293.753V493.252H293.844C294.003 492.782 294.283 492.413 294.685 492.144C295.09 491.871 295.548 491.735 296.06 491.735C296.166 491.735 296.291 491.738 296.435 491.746C296.582 491.754 296.698 491.763 296.781 491.774V493.399C296.713 493.381 296.592 493.36 296.418 493.337C296.243 493.31 296.069 493.297 295.895 493.297C295.493 493.297 295.135 493.382 294.821 493.553C294.51 493.72 294.264 493.952 294.082 494.252C293.901 494.547 293.81 494.884 293.81 495.263V500.593H292.111ZM304.791 493.996L303.251 494.269C303.187 494.072 303.085 493.884 302.945 493.706C302.808 493.528 302.623 493.382 302.388 493.269C302.153 493.155 301.859 493.098 301.507 493.098C301.026 493.098 300.625 493.206 300.303 493.422C299.981 493.634 299.82 493.909 299.82 494.246C299.82 494.538 299.928 494.773 300.143 494.951C300.359 495.129 300.708 495.274 301.189 495.388L302.575 495.706C303.378 495.892 303.977 496.178 304.371 496.564C304.765 496.951 304.962 497.452 304.962 498.07C304.962 498.593 304.81 499.059 304.507 499.468C304.208 499.873 303.789 500.191 303.251 500.422C302.717 500.653 302.098 500.769 301.393 500.769C300.416 500.769 299.619 500.56 299.001 500.144C298.384 499.723 298.005 499.127 297.865 498.354L299.507 498.104C299.609 498.532 299.82 498.856 300.138 499.076C300.456 499.292 300.871 499.399 301.382 499.399C301.939 499.399 302.384 499.284 302.717 499.053C303.051 498.818 303.217 498.532 303.217 498.195C303.217 497.922 303.115 497.693 302.911 497.507C302.71 497.322 302.401 497.182 301.984 497.087L300.507 496.763C299.693 496.577 299.09 496.282 298.7 495.877C298.314 495.471 298.121 494.958 298.121 494.337C298.121 493.822 298.265 493.371 298.553 492.985C298.84 492.598 299.238 492.297 299.746 492.081C300.253 491.862 300.835 491.752 301.49 491.752C302.433 491.752 303.176 491.956 303.717 492.365C304.259 492.771 304.617 493.314 304.791 493.996ZM307.949 500.701C307.638 500.701 307.371 500.591 307.148 500.371C306.924 500.148 306.812 499.879 306.812 499.564C306.812 499.254 306.924 498.988 307.148 498.769C307.371 498.545 307.638 498.434 307.949 498.434C308.259 498.434 308.527 498.545 308.75 498.769C308.973 498.988 309.085 499.254 309.085 499.564C309.085 499.773 309.032 499.964 308.926 500.138C308.824 500.309 308.688 500.445 308.517 500.547C308.347 500.649 308.157 500.701 307.949 500.701Z" fill="#5C5C5C"/>
</svg>
